<?xml version="1.0" encoding="UTF-8" standalone="no"?>
<svg width="185.208mm" height="128.764mm"
 viewBox="0 0 525 365"
 xmlns="http://www.w3.org/2000/svg" xmlns:xlink="http://www.w3.org/1999/xlink"  version="1.2" baseProfile="tiny">
<title>Qt SVG Document</title>
<desc>MATLAB, The MathWorks, Inc. Version 25.2.0.2998904 R2025b</desc>
<defs>
</defs>
<g fill="none" stroke="black" stroke-width="1" fill-rule="evenodd" stroke-linecap="square" stroke-linejoin="bevel" >

<g fill="#ffffff" fill-opacity="1" stroke="none" transform="matrix(0.5,0,0,0.5,-126.886,-30.5)"
font-family=".AppleSystemUIFont" font-size="13" font-weight="400" font-style="normal" 
>
<path vector-effect="none" fill-rule="evenodd" d="M252,60 L1303,60 L1303,790 L252,790 L252,60"/>
</g>

<g fill="none" stroke="#75147c" stroke-opacity="1" stroke-width="4" stroke-linecap="butt" stroke-linejoin="round" transform="matrix(0.5,0,0,0.5,-126.886,-30.5)"
font-family=".AppleSystemUIFont" font-size="13" font-weight="400" font-style="normal" 
>
<polyline fill="none" vector-effect="none" points="317.795,112.735 318.777,111.559 319.758,110.384 320.74,109.211 321.721,108.04 322.703,106.872 323.684,105.707 324.665,104.547 325.647,103.392 326.628,102.243 327.61,101.101 328.591,99.9661 329.573,98.8393 330.554,97.7212 331.536,96.6126 332.517,95.5143 333.498,94.4268 334.48,93.3509 335.461,92.2873 336.443,91.2367 337.424,90.1996 338.406,89.1768 339.387,88.1689 340.368,87.1766 341.35,86.2004 342.331,85.2411 343.313,84.2991 344.294,83.3751 345.276,82.4697 346.257,81.5835 347.239,80.7169 348.22,79.8707 349.201,79.0452 350.183,78.2411 351.164,77.4588 352.146,76.6988 353.127,75.9616 354.109,75.2477 355.09,74.5575 356.071,73.8915 357.053,73.2501 358.034,72.6337 359.016,72.0426 359.997,71.4773 360.979,70.9381 361.96,70.4253 362.941,69.9394 363.923,69.4805 364.904,69.049 365.886,68.6451 366.867,68.2692 367.849,67.9214 368.83,67.6019 369.812,67.311 370.793,67.0489 371.774,66.8157 372.756,66.6115 373.737,66.4365 374.719,66.2909 375.7,66.1746 376.682,66.0878 377.663,66.0305 378.645,66.0028 379.626,66.0046 380.607,66.036 381.589,66.097 382.57,66.1875 383.552,66.3075 384.533,66.4568 385.515,66.6354 386.496,66.8433 387.477,67.0801 388.459,67.3458 389.44,67.6403 390.422,67.9633 391.403,68.3146 392.385,68.6941 393.366,69.1014 394.347,69.5364 395.329,69.9987 396.31,70.488 397.292,71.0041 398.273,71.5465 399.255,72.1151 400.236,72.7093 401.218,73.3289 402.199,73.9735 403.18,74.6425 404.162,75.3357 405.143,76.0525 406.125,76.7926 407.106,77.5554 408.088,78.3404 409.069,79.1473 410.05,79.9753 411.032,80.8242 412.013,81.6932 412.995,82.5818 413.976,83.4896 414.958,84.4159 415.939,85.36 416.921,86.3215 417.902,87.2998 418.883,88.2941 419.865,89.3039 420.846,90.3285 421.828,91.3673 422.809,92.4196 423.791,93.4848 424.772,94.5621 425.753,95.651 426.735,96.7507 427.716,97.8605 428.698,98.9797 429.679,100.108 430.661,101.243 431.642,102.387 432.623,103.536 433.605,104.692 434.586,105.853 435.568,107.018 436.549,108.186 437.531,109.358 438.512,110.531 439.494,111.706 440.475,112.882 441.456,114.058 442.438,115.232 443.419,116.405 444.401,117.576 445.382,118.744 446.364,119.908 447.345,121.067 448.326,122.222 449.308,123.37 450.289,124.511 451.271,125.645 452.252,126.771 453.234,127.888 454.215,128.995 455.197,130.092 456.178,131.178 457.159,132.253 458.141,133.315 459.122,134.364 460.104,135.399 461.085,136.42 462.067,137.426 463.048,138.416 464.029,139.39 465.011,140.348 465.992,141.287 466.974,142.209 467.955,143.112 468.937,143.996 469.918,144.86 470.899,145.704 471.881,146.526 472.862,147.328 473.844,148.107 474.825,148.865 475.807,149.599 476.788,150.31 477.77,150.997 478.751,151.66 479.732,152.298 480.714,152.912 481.695,153.499 482.677,154.062 483.658,154.597 484.64,155.107 485.621,155.589 486.602,156.045 487.584,156.473 488.565,156.873 489.547,157.246 490.528,157.59 491.51,157.906 492.491,158.193 493.473,158.452 494.454,158.681 495.435,158.882 496.417,159.053 497.398,159.195 498.38,159.308 499.361,159.391 500.343,159.445 501.324,159.469 502.305,159.463 503.287,159.428 504.268,159.363 505.25,159.269 506.231,159.145 507.213,158.992 508.194,158.81 509.175,158.599 510.157,158.358 511.138,158.089 512.12,157.791 513.101,157.464 514.083,157.109 515.064,156.727 516.046,156.316 517.027,155.877 518.008,155.412 518.99,154.919 519.971,154.4 520.953,153.854 521.934,153.282 522.916,152.685 523.897,152.062 524.878,151.414 525.86,150.742 526.841,150.046 527.823,149.326 528.804,148.583 529.786,147.818 530.767,147.03 531.748,146.22 532.73,145.39 533.711,144.538 534.693,143.667 535.674,142.776 536.656,141.866 537.637,140.937 538.619,139.991 539.6,139.027 540.581,138.047 541.563,137.051 542.544,136.039 543.526,135.012 544.507,133.972 545.489,132.918 546.47,131.851 547.451,130.772 548.433,129.682 549.414,128.581 550.396,127.47 551.377,126.35 552.359,125.221 553.34,124.084 554.322,122.94 555.303,121.789 556.284,120.633 557.266,119.472 558.247,118.307 559.229,117.138 560.21,115.966 561.192,114.792 562.173,113.617 563.154,112.441 564.136,111.266 565.117,110.091 566.099,108.918 567.08,107.748 568.062,106.58 569.043,105.417 570.024,104.258 571.006,103.104 571.987,101.957 572.969,100.817 573.95,99.6836 574.932,98.5589 575.913,97.4431 576.895,96.3371 577.876,95.2414 578.857,94.1567 579.839,93.0839 580.82,92.0234 581.802,90.9761 582.783,89.9426 583.765,88.9234 584.746,87.9194 585.727,86.931 586.709,85.959 587.69,85.0039 588.672,84.0664 589.653,83.147 590.635,82.2463 591.616,81.365 592.598,80.5035 593.579,79.6623 594.56,78.8422 595.542,78.0434 596.523,77.2667 597.505,76.5123 598.486,75.7809 599.468,75.0729 600.449,74.3888 601.43,73.7289 602.412,73.0936 603.393,72.4835 604.375,71.8989 605.356,71.34 606.338,70.8074 607.319,70.3013 608.301,69.8221 609.282,69.37 610.263,68.9454 611.245,68.5485 612.226,68.1796 613.208,67.8389 614.189,67.5265 615.171,67.2428 616.152,66.9879 617.133,66.7619 618.115,66.565 619.096,66.3974 620.078,66.259 621.059,66.1501 622.041,66.0707 623.022,66.0208 624.003,66.0005 624.985,66.0097 625.966,66.0485 626.948,66.1169 627.929,66.2148 628.911,66.3421 629.892,66.4987 630.874,66.6847 631.855,66.8997 632.836,67.1438 633.818,67.4168 634.799,67.7184 635.781,68.0485 636.762,68.4069 637.744,68.7933 638.725,69.2076 639.706,69.6494 640.688,70.1185 641.669,70.6145 642.651,71.1372 643.632,71.6862 644.614,72.2612 645.595,72.8619 646.577,73.4877 647.558,74.1384 648.539,74.8136 649.521,75.5127 650.502,76.2354 651.484,76.9811 652.465,77.7496 653.447,78.5401 654.428,79.3523 655.409,80.1856 656.391,81.0396 657.372,81.9135 658.354,82.807 659.335,83.7195 660.317,84.6502 661.298,85.5988 662.279,86.5645 663.261,87.5469 664.242,88.5451 665.224,89.5587 666.205,90.5869 667.187,91.6291 668.168,92.6847 669.15,93.753 670.131,94.8333 671.112,95.9249 672.094,97.0272 673.075,98.1394 674.057,99.2609 675.038,100.391 676.02,101.529 677.001,102.674 677.982,103.825 678.964,104.982 679.945,106.143 680.927,107.309 681.908,108.479 682.89,109.651 683.871,110.825 684.852,112 685.834,113.176 686.815,114.351 687.797,115.526 688.778,116.698 689.76,117.869 690.741,119.035 691.723,120.198 692.704,121.357 693.685,122.509 694.667,123.656 695.648,124.795 696.63,125.927 697.611,127.051 698.593,128.166 699.574,129.27 700.555,130.365 701.537,131.448 702.518,132.519 703.5,133.578 704.481,134.624 705.463,135.656 706.444,136.673 707.426,137.675 708.407,138.661 709.388,139.631 710.37,140.584 711.351,141.52 712.333,142.437 713.314,143.335 714.296,144.214 715.277,145.073 716.258,145.911 717.24,146.729 718.221,147.525 719.203,148.299 720.184,149.05 721.166,149.779 722.147,150.484 723.128,151.165 724.11,151.822 725.091,152.454 726.073,153.061 727.054,153.642 728.036,154.198 729.017,154.727 729.999,155.23 730.98,155.706 731.961,156.155 732.943,156.576 733.924,156.969 734.906,157.335 735.887,157.672 736.869,157.981 737.85,158.261 738.831,158.512 739.813,158.734 740.794,158.928 741.776,159.092 742.757,159.226 743.739,159.331 744.72,159.407 745.702,159.453 746.683,159.47 747.664,159.457 748.646,159.415 749.627,159.342 750.609,159.241 751.59,159.11 752.572,158.95 753.553,158.76 754.534,158.541 755.516,158.294 756.497,158.017 757.479,157.712 758.46,157.378 759.442,157.016 760.423,156.626 761.405,156.209 762.386,155.763 763.367,155.291 764.349,154.792 765.33,154.266 766.312,153.713 767.293,153.135 768.275,152.531 769.256,151.902 770.237,151.249 771.219,150.57 772.2,149.868 773.182,149.143 774.163,148.394 775.145,147.623 776.126,146.83 777.107,146.015 778.089,145.179 779.07,144.322 780.052,143.446 781.033,142.55 782.015,141.635 782.996,140.702 783.978,139.751 784.959,138.784 785.94,137.799 786.922,136.799 787.903,135.784 788.885,134.754 789.866,133.71 790.848,132.652 791.829,131.583 792.81,130.501 793.792,129.408 794.773,128.304 795.755,127.191 796.736,126.068 797.718,124.937 798.699,123.799 799.681,122.653 800.662,121.501 801.643,120.343 802.625,119.181 803.606,118.015 804.588,116.845 805.569,115.672 806.551,114.498 807.532,113.323 808.513,112.147 809.495,110.972 810.476,109.798 811.458,108.625 812.439,107.455 813.421,106.289 814.402,105.127 815.383,103.969 816.365,102.817 817.346,101.671 818.328,100.533 819.309,99.4017 820.291,98.2791 821.272,97.1657 822.254,96.0621 823.235,94.9692 824.216,93.8874 825.198,92.8176 826.179,91.7604 827.161,90.7164 828.142,89.6864 829.124,88.671 830.105,87.6708 831.086,86.6864 832.068,85.7186 833.049,84.7679 834.031,83.8348 835.012,82.92 835.994,82.0242 836.975,81.1477 837.956,80.2913 838.938,79.4553 839.919,78.6405 840.901,77.8472 841.882,77.076 842.864,76.3273 843.845,75.6017 844.827,74.8996 845.808,74.2215 846.789,73.5677 847.771,72.9387 848.752,72.3349 849.734,71.7567 850.715,71.2044 851.697,70.6784 852.678,70.179 853.659,69.7066 854.641,69.2613 855.622,68.8436 856.604,68.4537 857.585,68.0917 858.567,67.7581 859.548,67.4529 860.53,67.1764 861.511,66.9287 862.492,66.7099 863.474,66.5204 864.455,66.36 865.437,66.2291 866.418,66.1275 867.4,66.0555 868.381,66.0129 869.362,66 870.344,66.0166 871.325,66.0629 872.307,66.1386 873.288,66.2438 874.27,66.3785 875.251,66.5425 876.233,66.7357 877.214,66.958 878.195,67.2094 879.177,67.4895 880.158,67.7982 881.14,68.1354 882.121,68.5009 883.103,68.8943 884.084,69.3155 885.065,69.7641 886.047,70.24 887.028,70.7427 888.01,71.272 888.991,71.8276 889.973,72.409 890.954,73.016 891.935,73.6481 892.917,74.3049 893.898,74.9861 894.88,75.6912 895.861,76.4197 896.843,77.1711 897.824,77.9451 898.806,78.7412 899.787,79.5587 900.768,80.3972 901.75,81.2562 902.731,82.1351 903.713,83.0334 904.694,83.9504 905.676,84.8857 906.657,85.8387 907.638,86.8086 908.62,87.795 909.601,88.7971 910.583,89.8144 911.564,90.8462 912.546,91.8918 913.527,92.9506 914.509,94.022 915.49,95.1052 916.471,96.1995 917.453,97.3043 918.434,98.4189 919.416,99.5426 920.397,100.675 921.379,101.814 922.36,102.961 923.341,104.113 924.323,105.272 925.304,106.435 926.286,107.601 927.267,108.772 928.249,109.944 929.23,111.119 930.211,112.294 931.193,113.47 932.174,114.645 933.156,115.819 934.137,116.991 935.119,118.161 936.1,119.327 937.082,120.488 938.063,121.645 939.044,122.797 940.026,123.941 941.007,125.079 941.989,126.209 942.97,127.331 943.952,128.443 944.933,129.545 945.914,130.637 946.896,131.717 947.877,132.785 948.859,133.841 949.84,134.883 950.822,135.911 951.803,136.925 952.784,137.923 953.766,138.905 954.747,139.871 955.729,140.82 956.71,141.751 957.692,142.663 958.673,143.556 959.655,144.43 960.636,145.284 961.617,146.118 962.599,146.93 963.58,147.72 964.562,148.489 965.543,149.235 966.525,149.957 967.506,150.656 968.488,151.332 969.469,151.982 970.45,152.608 971.432,153.209 972.413,153.784 973.395,154.333 974.376,154.855 975.358,155.352 976.339,155.821 977.32,156.262 978.302,156.677 979.283,157.063 980.265,157.422 981.246,157.752 982.228,158.053 983.209,158.326 984.19,158.57 985.172,158.785 986.153,158.971 987.135,159.128 988.116,159.255 989.098,159.353 990.079,159.421 991.061,159.46 992.042,159.47 993.023,159.449 994.005,159.399 994.986,159.32 995.968,159.211 996.949,159.073 997.931,158.905 998.912,158.708 999.893,158.482 1000.87,158.227 1001.86,157.943 1002.84,157.631 1003.82,157.29 1004.8,156.921 1005.78,156.525 1006.76,156.1 1007.74,155.648 1008.73,155.169 1009.71,154.663 1010.69,154.13 1011.67,153.571 1012.65,152.986 1013.63,152.376 1014.61,151.741 1015.6,151.081 1016.58,150.397 1017.56,149.689 1018.54,148.958 1019.52,148.203 1020.5,147.427 1021.49,146.628 1022.47,145.808 1023.45,144.967 1024.43,144.105 1025.41,143.224 1026.39,142.323 1027.37,141.404 1028.36,140.466 1029.34,139.511 1030.32,138.539 1031.3,137.551 1032.28,136.547 1033.26,135.527 1034.24,134.494 1035.23,133.447 1036.21,132.386 1037.19,131.313 1038.17,130.229 1039.15,129.133 1040.13,128.027 1041.11,126.911 1042.1,125.786 1043.08,124.653 1044.06,123.513 1045.04,122.365 1046.02,121.212 1047,120.053 1047.98,118.89 1048.97,117.722 1049.95,116.552 1050.93,115.379 1051.91,114.204 1052.89,113.029 1053.87,111.853 1054.85,110.678 1055.84,109.504 1056.82,108.332 1057.8,107.163 1058.78,105.998 1059.76,104.837 1060.74,103.681 1061.72,102.53 1062.71,101.386 1063.69,100.249 1064.67,99.1202 1065.65,97.9999 1066.63,96.8889 1067.61,95.7879 1068.59,94.6976 1069.58,93.6188 1070.56,92.552 1071.54,91.4981 1072.52,90.4576 1073.5,89.4311 1074.48,88.4195 1075.46,87.4232 1076.45,86.4429 1077.43,85.4793 1078.41,84.5329 1079.39,83.6044 1080.37,82.6943 1081.35,81.8032 1082.33,80.9317 1083.32,80.0803 1084.3,79.2496 1085.28,78.4401 1086.26,77.6523 1087.24,76.8867 1088.22,76.1438 1089.2,75.424 1090.19,74.7279 1091.17,74.0557 1092.15,73.4081 1093.13,72.7854 1094.11,72.188 1095.09,71.6162 1096.07,71.0704 1097.06,70.551 1098.04,70.0583 1099.02,69.5927 1100,69.1543 1100.98,68.7435 1101.96,68.3605 1102.94,68.0057 1103.93,67.6791 1104.91,67.3811 1105.89,67.1117 1106.87,66.8713 1107.85,66.6598 1108.83,66.4775 1109.81,66.3245 1110.8,66.2009 1111.78,66.1067 1112.76,66.042 1113.74,66.0069 1114.72,66.0014 1115.7,66.0254 1116.68,66.079 1117.67,66.1621 1118.65,66.2747 1119.63,66.4167 1120.61,66.588 1121.59,66.7886 1122.57,67.0182 1123.55,67.2767 1124.54,67.564 1125.52,67.8799 1126.5,68.2242 1127.48,68.5966 1128.46,68.997 1129.44,69.4251 1130.42,69.8805 1131.41,70.3631 1132.39,70.8726 1133.37,71.4085 1134.35,71.9705 1135.33,72.5584 1136.31,73.1717 1137.29,73.81 1138.28,74.473 1139.26,75.1602 1140.24,75.8711 1141.22,76.6054 1142.2,77.3626 1143.18,78.1421 1144.16,78.9435 1145.15,79.7664 1146.13,80.61 1147.11,81.4741 1148.09,82.3579 1149.07,83.2609 1150.05,84.1826 1151.03,85.1223 1152.02,86.0796 1153,87.0537 1153.98,88.044 1154.96,89.05 1155.94,90.071 1156.92,91.1063 1157.9,92.1553 1158.89,93.2173 1159.87,94.2917 1160.85,95.3777 1161.83,96.4748 1162.81,97.5821 1163.79,98.699 1164.77,99.8248 1165.76,100.959 1166.74,102.1 1167.72,103.248 1168.7,104.403 1169.68,105.562 1170.66,106.726 1171.64,107.894 1172.63,109.065 1173.61,110.238 1174.59,111.412 1175.57,112.588 1176.55,113.764 1177.53,114.939 1178.51,116.112 1179.5,117.284 1180.48,118.452 1181.46,119.617 1182.44,120.778 1183.42,121.934 1184.4,123.083 1185.38,124.227 1186.37,125.362 1187.35,126.49 1188.33,127.61 1189.31,128.719 1190.29,129.819 1191.27,130.908 1192.25,131.985 1193.24,133.05 1194.22,134.103 1195.2,135.142 1196.18,136.166 1197.16,137.176 1198.14,138.17 1199.13,139.148 1200.11,140.11 1201.09,141.054 1202.07,141.98 1203.05,142.888 1204.03,143.777 1205.01,144.646 1205.99,145.495 1206.98,146.323 1207.96,147.13 1208.94,147.915 1209.92,148.677 1210.9,149.417 1211.88,150.134 1212.87,150.827 1213.85,151.497 1214.83,152.141 1215.81,152.761 1216.79,153.355 1217.77,153.923 1218.75,154.466 1219.74,154.982 1220.72,155.471 1221.7,155.934 1222.68,156.369 1223.66,156.776 1224.64,157.155 1225.62,157.507 1226.61,157.83 1227.59,158.124 1228.57,158.39 1229.55,158.627 1230.53,158.835 1231.51,159.013 1232.49,159.163 1233.48,159.282 1234.46,159.373 1235.44,159.434 1236.42,159.465 1237.4,159.467 1238.38,159.439 1239.36,159.382 1240.35,159.295 1241.33,159.179 1242.31,159.033 1243.29,158.858 1244.27,158.654 1245.25,158.421 1246.23,158.159 1247.22,157.868 1248.2,157.549 1249.18,157.201 1250.16,156.825 1251.14,156.421 1252.12,155.989 1253.1,155.531 1254.09,155.045 1255.07,154.532 1256.05,153.993 1257.03,153.427 1258.01,152.836 1258.99,152.22 1259.97,151.578 1260.96,150.912 1261.94,150.222 1262.92,149.508 1263.9,148.771 1264.88,148.011 1265.86,147.229 1266.84,146.425 1267.83,145.599 1268.81,144.753 1269.79,143.887 1270.77,143 1271.75,142.095 1272.73,141.171 1273.71,140.229 1274.7,139.27 1275.68,138.293 1276.66,137.301 1277.64,136.293 1278.62,135.27 1279.6,134.233 1280.58,133.183 1281.57,132.119 1282.55,131.043 1283.53,129.956 1284.51,128.857 1285.49,127.749 1286.47,126.631 1287.45,125.504 1288.44,124.369 1289.42,123.227 1290.4,122.078 1291.38,120.923 1292.36,119.763 1293.34,118.598 1294.32,117.43 1295.31,116.259 1296.29,115.086 1297.27,113.911 1298.25,112.735 " />
<polyline fill="none" vector-effect="none" points="317.795,269.117 318.777,272.641 319.758,276.145 320.74,279.609 321.721,283.013 322.703,286.338 323.684,289.565 324.665,292.676 325.647,295.652 326.628,298.478 327.61,301.136 328.591,303.612 329.573,305.891 330.554,307.961 331.536,309.81 332.517,311.428 333.498,312.804 334.48,313.932 335.461,314.804 336.443,315.416 337.424,315.765 338.406,315.848 339.387,315.665 340.368,315.218 341.35,314.507 342.331,313.538 343.313,312.317 344.294,310.849 345.276,309.144 346.257,307.21 347.239,305.06 348.22,302.706 349.201,300.16 350.183,297.437 351.164,294.553 352.146,291.524 353.127,288.368 354.109,285.102 355.09,281.745 356.071,278.316 357.053,274.835 358.034,271.321 359.016,267.795 359.997,264.276 360.979,260.785 361.96,257.341 362.941,253.964 363.923,250.674 364.904,247.489 365.886,244.426 366.867,241.505 367.849,238.74 368.83,236.149 369.812,233.745 370.793,231.542 371.774,229.554 372.756,227.791 373.737,226.263 374.719,224.979 375.7,223.946 376.682,223.171 377.663,222.657 378.645,222.407 379.626,222.424 380.607,222.707 381.589,223.253 382.57,224.061 383.552,225.126 384.533,226.44 385.515,227.998 386.496,229.79 387.477,231.806 388.459,234.034 389.44,236.462 390.422,239.076 391.403,241.862 392.385,244.802 393.366,247.88 394.347,251.08 395.329,254.382 396.31,257.768 397.292,261.219 398.273,264.715 399.255,268.236 400.236,271.762 401.218,275.272 402.199,278.748 403.18,282.169 404.162,285.516 405.143,288.769 406.125,291.91 407.106,294.922 408.088,297.786 409.069,300.488 410.05,303.011 411.032,305.341 412.013,307.464 412.995,309.369 413.976,311.046 414.958,312.483 415.939,313.673 416.921,314.61 417.902,315.288 418.883,315.703 419.865,315.853 420.846,315.736 421.828,315.354 422.809,314.709 423.791,313.804 424.772,312.645 425.753,311.238 426.735,309.592 427.716,307.714 428.698,305.617 429.679,303.313 430.661,300.813 431.642,298.133 432.623,295.288 433.605,292.294 434.586,289.168 435.568,285.928 436.549,282.592 437.531,279.179 438.512,275.709 439.494,272.202 440.475,268.677 441.456,265.154 442.438,261.654 443.419,258.197 444.401,254.801 445.382,251.487 446.364,248.274 447.345,245.179 448.326,242.221 449.308,239.416 450.289,236.779 451.271,234.327 452.252,232.073 453.234,230.03 454.215,228.21 455.197,226.622 456.178,225.276 457.159,224.18 458.141,223.34 459.122,222.761 460.104,222.445 461.085,222.395 462.067,222.611 463.048,223.092 464.029,223.835 465.011,224.836 465.992,226.089 466.974,227.587 467.955,229.321 468.937,231.282 469.918,233.458 470.899,235.837 471.881,238.406 472.862,241.15 473.844,244.053 474.825,247.099 475.807,250.27 476.788,253.548 477.77,256.915 478.751,260.351 479.732,263.838 480.714,267.354 481.695,270.881 482.677,274.397 483.658,277.884 484.64,281.32 485.621,284.687 486.602,287.965 487.584,291.136 488.565,294.182 489.547,297.085 490.528,299.829 491.51,302.397 492.491,304.777 493.473,306.953 494.454,308.914 495.435,310.648 496.417,312.146 497.398,313.399 498.38,314.4 499.361,315.143 500.343,315.624 501.324,315.84 502.305,315.79 503.287,315.474 504.268,314.895 505.25,314.055 506.231,312.959 507.213,311.613 508.194,310.025 509.175,308.205 510.157,306.162 511.138,303.908 512.12,301.456 513.101,298.819 514.083,296.014 515.064,293.056 516.046,289.961 517.027,286.747 518.008,283.434 518.99,280.038 519.971,276.581 520.953,273.081 521.934,269.558 522.916,266.033 523.897,262.526 524.878,259.056 525.86,255.643 526.841,252.307 527.823,249.067 528.804,245.941 529.786,242.947 530.767,240.102 531.748,237.422 532.73,234.922 533.711,232.618 534.693,230.521 535.674,228.643 536.656,226.997 537.637,225.59 538.619,224.431 539.6,223.526 540.581,222.881 541.563,222.499 542.544,222.383 543.526,222.532 544.507,222.947 545.489,223.625 546.47,224.562 547.451,225.752 548.433,227.189 549.414,228.866 550.396,230.771 551.377,232.895 552.359,235.224 553.34,237.747 554.322,240.449 555.303,243.313 556.284,246.325 557.266,249.466 558.247,252.719 559.229,256.066 560.21,259.487 561.192,262.963 562.173,266.473 563.154,269.999 564.136,273.52 565.117,277.016 566.099,280.467 567.08,283.853 568.062,287.155 569.043,290.355 570.024,293.433 571.006,296.373 571.987,299.159 572.969,301.772 573.95,304.201 574.932,306.429 575.913,308.445 576.895,310.237 577.876,311.795 578.857,313.109 579.839,314.174 580.82,314.982 581.802,315.528 582.783,315.811 583.765,315.828 584.746,315.578 585.727,315.064 586.709,314.289 587.69,313.256 588.672,311.972 589.653,310.444 590.635,308.681 591.616,306.693 592.598,304.49 593.579,302.086 594.56,299.495 595.542,296.73 596.523,293.809 597.505,290.746 598.486,287.561 599.468,284.271 600.449,280.894 601.43,277.45 602.412,273.959 603.393,270.44 604.375,266.914 605.356,263.4 606.338,259.919 607.319,256.49 608.301,253.133 609.282,249.867 610.263,246.711 611.245,243.682 612.226,240.798 613.208,238.075 614.189,235.529 615.171,233.175 616.152,231.025 617.133,229.091 618.115,227.386 619.096,225.918 620.078,224.697 621.059,223.728 622.041,223.017 623.022,222.57 624.003,222.387 624.985,222.47 625.966,222.819 626.948,223.431 627.929,224.303 628.911,225.431 629.892,226.807 630.874,228.425 631.855,230.274 632.836,232.344 633.818,234.623 634.799,237.099 635.781,239.757 636.762,242.583 637.744,245.559 638.725,248.67 639.706,251.897 640.688,255.222 641.669,258.626 642.651,262.09 643.632,265.594 644.614,269.117 645.595,272.641 646.577,276.145 647.558,279.609 648.539,283.013 649.521,286.338 650.502,289.565 651.484,292.676 652.465,295.652 653.447,298.478 654.428,301.136 655.409,303.612 656.391,305.891 657.372,307.961 658.354,309.81 659.335,311.428 660.317,312.804 661.298,313.932 662.279,314.804 663.261,315.416 664.242,315.765 665.224,315.848 666.205,315.665 667.187,315.218 668.168,314.507 669.15,313.538 670.131,312.317 671.112,310.849 672.094,309.144 673.075,307.21 674.057,305.06 675.038,302.706 676.02,300.16 677.001,297.437 677.982,294.553 678.964,291.524 679.945,288.368 680.927,285.102 681.908,281.745 682.89,278.316 683.871,274.835 684.852,271.321 685.834,267.795 686.815,264.276 687.797,260.785 688.778,257.341 689.76,253.964 690.741,250.674 691.723,247.489 692.704,244.426 693.685,241.505 694.667,238.74 695.648,236.149 696.63,233.745 697.611,231.542 698.593,229.554 699.574,227.791 700.555,226.263 701.537,224.979 702.518,223.946 703.5,223.171 704.481,222.657 705.463,222.407 706.444,222.424 707.426,222.707 708.407,223.253 709.388,224.061 710.37,225.126 711.351,226.44 712.333,227.998 713.314,229.79 714.296,231.806 715.277,234.034 716.258,236.462 717.24,239.076 718.221,241.862 719.203,244.802 720.184,247.88 721.166,251.08 722.147,254.382 723.128,257.768 724.11,261.219 725.091,264.715 726.073,268.236 727.054,271.762 728.036,275.272 729.017,278.748 729.999,282.169 730.98,285.516 731.961,288.769 732.943,291.91 733.924,294.922 734.906,297.786 735.887,300.488 736.869,303.011 737.85,305.341 738.831,307.464 739.813,309.369 740.794,311.046 741.776,312.483 742.757,313.673 743.739,314.61 744.72,315.288 745.702,315.703 746.683,315.853 747.664,315.736 748.646,315.354 749.627,314.709 750.609,313.804 751.59,312.645 752.572,311.238 753.553,309.592 754.534,307.714 755.516,305.617 756.497,303.313 757.479,300.813 758.46,298.133 759.442,295.288 760.423,292.294 761.405,289.168 762.386,285.928 763.367,282.592 764.349,279.179 765.33,275.709 766.312,272.202 767.293,268.677 768.275,265.154 769.256,261.654 770.237,258.197 771.219,254.801 772.2,251.487 773.182,248.274 774.163,245.179 775.145,242.221 776.126,239.416 777.107,236.779 778.089,234.327 779.07,232.073 780.052,230.03 781.033,228.21 782.015,226.622 782.996,225.276 783.978,224.18 784.959,223.34 785.94,222.761 786.922,222.445 787.903,222.395 788.885,222.611 789.866,223.092 790.848,223.835 791.829,224.836 792.81,226.089 793.792,227.587 794.773,229.321 795.755,231.282 796.736,233.458 797.718,235.837 798.699,238.406 799.681,241.15 800.662,244.053 801.643,247.099 802.625,250.27 803.606,253.548 804.588,256.915 805.569,260.351 806.551,263.838 807.532,267.354 808.513,270.881 809.495,274.397 810.476,277.884 811.458,281.32 812.439,284.687 813.421,287.965 814.402,291.136 815.383,294.182 816.365,297.085 817.346,299.829 818.328,302.397 819.309,304.777 820.291,306.953 821.272,308.914 822.254,310.648 823.235,312.146 824.216,313.399 825.198,314.4 826.179,315.143 827.161,315.624 828.142,315.84 829.124,315.79 830.105,315.474 831.086,314.895 832.068,314.055 833.049,312.959 834.031,311.613 835.012,310.025 835.994,308.205 836.975,306.162 837.956,303.908 838.938,301.456 839.919,298.819 840.901,296.014 841.882,293.056 842.864,289.961 843.845,286.747 844.827,283.434 845.808,280.038 846.789,276.581 847.771,273.081 848.752,269.558 849.734,266.033 850.715,262.526 851.697,259.056 852.678,255.643 853.659,252.307 854.641,249.067 855.622,245.941 856.604,242.947 857.585,240.102 858.567,237.422 859.548,234.922 860.53,232.618 861.511,230.521 862.492,228.643 863.474,226.997 864.455,225.59 865.437,224.431 866.418,223.526 867.4,222.881 868.381,222.499 869.362,222.383 870.344,222.532 871.325,222.947 872.307,223.625 873.288,224.562 874.27,225.752 875.251,227.189 876.233,228.866 877.214,230.771 878.195,232.895 879.177,235.224 880.158,237.747 881.14,240.449 882.121,243.313 883.103,246.325 884.084,249.466 885.065,252.719 886.047,256.066 887.028,259.487 888.01,262.963 888.991,266.473 889.973,269.999 890.954,273.52 891.935,277.016 892.917,280.467 893.898,283.853 894.88,287.155 895.861,290.355 896.843,293.433 897.824,296.373 898.806,299.159 899.787,301.772 900.768,304.201 901.75,306.429 902.731,308.445 903.713,310.237 904.694,311.795 905.676,313.109 906.657,314.174 907.638,314.982 908.62,315.528 909.601,315.811 910.583,315.828 911.564,315.578 912.546,315.064 913.527,314.289 914.509,313.256 915.49,311.972 916.471,310.444 917.453,308.681 918.434,306.693 919.416,304.49 920.397,302.086 921.379,299.495 922.36,296.73 923.341,293.809 924.323,290.746 925.304,287.561 926.286,284.271 927.267,280.894 928.249,277.45 929.23,273.959 930.211,270.44 931.193,266.914 932.174,263.4 933.156,259.919 934.137,256.49 935.119,253.133 936.1,249.867 937.082,246.711 938.063,243.682 939.044,240.798 940.026,238.075 941.007,235.529 941.989,233.175 942.97,231.025 943.952,229.091 944.933,227.386 945.914,225.918 946.896,224.697 947.877,223.728 948.859,223.017 949.84,222.57 950.822,222.387 951.803,222.47 952.784,222.819 953.766,223.431 954.747,224.303 955.729,225.431 956.71,226.807 957.692,228.425 958.673,230.274 959.655,232.344 960.636,234.623 961.617,237.099 962.599,239.757 963.58,242.583 964.562,245.559 965.543,248.67 966.525,251.897 967.506,255.222 968.488,258.626 969.469,262.09 970.45,265.594 971.432,269.117 972.413,272.641 973.395,276.145 974.376,279.609 975.358,283.013 976.339,286.338 977.32,289.565 978.302,292.676 979.283,295.652 980.265,298.478 981.246,301.136 982.228,303.612 983.209,305.891 984.19,307.961 985.172,309.81 986.153,311.428 987.135,312.804 988.116,313.932 989.098,314.804 990.079,315.416 991.061,315.765 992.042,315.848 993.023,315.665 994.005,315.218 994.986,314.507 995.968,313.538 996.949,312.317 997.931,310.849 998.912,309.144 999.893,307.21 1000.87,305.06 1001.86,302.706 1002.84,300.16 1003.82,297.437 1004.8,294.553 1005.78,291.524 1006.76,288.368 1007.74,285.102 1008.73,281.745 1009.71,278.316 1010.69,274.835 1011.67,271.321 1012.65,267.795 1013.63,264.276 1014.61,260.785 1015.6,257.341 1016.58,253.964 1017.56,250.674 1018.54,247.489 1019.52,244.426 1020.5,241.505 1021.49,238.74 1022.47,236.149 1023.45,233.745 1024.43,231.542 1025.41,229.554 1026.39,227.791 1027.37,226.263 1028.36,224.979 1029.34,223.946 1030.32,223.171 1031.3,222.657 1032.28,222.407 1033.26,222.424 1034.24,222.707 1035.23,223.253 1036.21,224.061 1037.19,225.126 1038.17,226.44 1039.15,227.998 1040.13,229.79 1041.11,231.806 1042.1,234.034 1043.08,236.462 1044.06,239.076 1045.04,241.862 1046.02,244.802 1047,247.88 1047.98,251.08 1048.97,254.382 1049.95,257.768 1050.93,261.219 1051.91,264.715 1052.89,268.236 1053.87,271.762 1054.85,275.272 1055.84,278.748 1056.82,282.169 1057.8,285.516 1058.78,288.769 1059.76,291.91 1060.74,294.922 1061.72,297.786 1062.71,300.488 1063.69,303.011 1064.67,305.341 1065.65,307.464 1066.63,309.369 1067.61,311.046 1068.59,312.483 1069.58,313.673 1070.56,314.61 1071.54,315.288 1072.52,315.703 1073.5,315.853 1074.48,315.736 1075.46,315.354 1076.45,314.709 1077.43,313.804 1078.41,312.645 1079.39,311.238 1080.37,309.592 1081.35,307.714 1082.33,305.617 1083.32,303.313 1084.3,300.813 1085.28,298.133 1086.26,295.288 1087.24,292.294 1088.22,289.168 1089.2,285.928 1090.19,282.592 1091.17,279.179 1092.15,275.709 1093.13,272.202 1094.11,268.677 1095.09,265.154 1096.07,261.654 1097.06,258.197 1098.04,254.801 1099.02,251.487 1100,248.274 1100.98,245.179 1101.96,242.221 1102.94,239.416 1103.93,236.779 1104.91,234.327 1105.89,232.073 1106.87,230.03 1107.85,228.21 1108.83,226.622 1109.81,225.276 1110.8,224.18 1111.78,223.34 1112.76,222.761 1113.74,222.445 1114.72,222.395 1115.7,222.611 1116.68,223.092 1117.67,223.835 1118.65,224.836 1119.63,226.089 1120.61,227.587 1121.59,229.321 1122.57,231.282 1123.55,233.458 1124.54,235.837 1125.52,238.406 1126.5,241.15 1127.48,244.053 1128.46,247.099 1129.44,250.27 1130.42,253.548 1131.41,256.915 1132.39,260.351 1133.37,263.838 1134.35,267.354 1135.33,270.881 1136.31,274.397 1137.29,277.884 1138.28,281.32 1139.26,284.687 1140.24,287.965 1141.22,291.136 1142.2,294.182 1143.18,297.085 1144.16,299.829 1145.15,302.397 1146.13,304.777 1147.11,306.953 1148.09,308.914 1149.07,310.648 1150.05,312.146 1151.03,313.399 1152.02,314.4 1153,315.143 1153.98,315.624 1154.96,315.84 1155.94,315.79 1156.92,315.474 1157.9,314.895 1158.89,314.055 1159.87,312.959 1160.85,311.613 1161.83,310.025 1162.81,308.205 1163.79,306.162 1164.77,303.908 1165.76,301.456 1166.74,298.819 1167.72,296.014 1168.7,293.056 1169.68,289.961 1170.66,286.747 1171.64,283.434 1172.63,280.038 1173.61,276.581 1174.59,273.081 1175.57,269.558 1176.55,266.033 1177.53,262.526 1178.51,259.056 1179.5,255.643 1180.48,252.307 1181.46,249.067 1182.44,245.941 1183.42,242.947 1184.4,240.102 1185.38,237.422 1186.37,234.922 1187.35,232.618 1188.33,230.521 1189.31,228.643 1190.29,226.997 1191.27,225.59 1192.25,224.431 1193.24,223.526 1194.22,222.881 1195.2,222.499 1196.18,222.383 1197.16,222.532 1198.14,222.947 1199.13,223.625 1200.11,224.562 1201.09,225.752 1202.07,227.189 1203.05,228.866 1204.03,230.771 1205.01,232.895 1205.99,235.224 1206.98,237.747 1207.96,240.449 1208.94,243.313 1209.92,246.325 1210.9,249.466 1211.88,252.719 1212.87,256.066 1213.85,259.487 1214.83,262.963 1215.81,266.473 1216.79,269.999 1217.77,273.52 1218.75,277.016 1219.74,280.467 1220.72,283.853 1221.7,287.155 1222.68,290.355 1223.66,293.433 1224.64,296.373 1225.62,299.159 1226.61,301.772 1227.59,304.201 1228.57,306.429 1229.55,308.445 1230.53,310.237 1231.51,311.795 1232.49,313.109 1233.48,314.174 1234.46,314.982 1235.44,315.528 1236.42,315.811 1237.4,315.828 1238.38,315.578 1239.36,315.064 1240.35,314.289 1241.33,313.256 1242.31,311.972 1243.29,310.444 1244.27,308.681 1245.25,306.693 1246.23,304.49 1247.22,302.086 1248.2,299.495 1249.18,296.73 1250.16,293.809 1251.14,290.746 1252.12,287.561 1253.1,284.271 1254.09,280.894 1255.07,277.45 1256.05,273.959 1257.03,270.44 1258.01,266.914 1258.99,263.4 1259.97,259.919 1260.96,256.49 1261.94,253.133 1262.92,249.867 1263.9,246.711 1264.88,243.682 1265.86,240.798 1266.84,238.075 1267.83,235.529 1268.81,233.175 1269.79,231.025 1270.77,229.091 1271.75,227.386 1272.73,225.918 1273.71,224.697 1274.7,223.728 1275.68,223.017 1276.66,222.57 1277.64,222.387 1278.62,222.47 1279.6,222.819 1280.58,223.431 1281.57,224.303 1282.55,225.431 1283.53,226.807 1284.51,228.425 1285.49,230.274 1286.47,232.344 1287.45,234.623 1288.44,237.099 1289.42,239.757 1290.4,242.583 1291.38,245.559 1292.36,248.67 1293.34,251.897 1294.32,255.222 1295.31,258.626 1296.29,262.09 1297.27,265.594 1298.25,269.117 " />
</g>

<g fill="#212121" fill-opacity="1" stroke="none" transform="matrix(0.5,0,0,0.5,0.499992,108.379)"
font-family=".AppleSystemUIFont" font-size="13" font-weight="400" font-style="normal" 
>
<path vector-effect="none" fill-rule="evenodd" d="M2.70703,-8.2793 C2.50781,-8.2793 2.34375,-8.35547 2.21484,-8.50781 C2.08594,-8.66016 2.02148,-8.82422 2.02148,-9 C2.02148,-9.17578 2.08594,-9.33984 2.21484,-9.49219 C2.34375,-9.64453 2.50781,-9.7207 2.70703,-9.7207 L13.2891,-9.7207 L13.2891,-20.3379 C13.2891,-20.5254 13.3594,-20.6807 13.5,-20.8037 C13.6406,-20.9268 13.8105,-20.9883 14.0098,-20.9883 C14.1855,-20.9883 14.3496,-20.9268 14.502,-20.8037 C14.6543,-20.6807 14.7305,-20.5254 14.7305,-20.3379 L14.7305,-9.7207 L25.3125,-9.7207 C25.4883,-9.7207 25.6406,-9.64453 25.7695,-9.49219 C25.8984,-9.33984 25.9629,-9.17578 25.9629,-9 C25.9629,-8.82422 25.8984,-8.66016 25.7695,-8.50781 C25.6406,-8.35547 25.4883,-8.2793 25.3125,-8.2793 L14.7305,-8.2793 L14.7305,2.33789 C14.7305,2.52539 14.6543,2.68066 14.502,2.80371 C14.3496,2.92676 14.1855,2.98828 14.0098,2.98828 C13.8105,2.98828 13.6406,2.92676 13.5,2.80371 C13.3594,2.68066 13.2891,2.52539 13.2891,2.33789 L13.2891,-8.2793 L2.70703,-8.2793"/>
</g>

<g fill="none" stroke="#75147c" stroke-opacity="1" stroke-width="4" stroke-linecap="butt" stroke-linejoin="round" transform="matrix(0.5,0,0,0.5,-126.886,-30.5)"
font-family=".AppleSystemUIFont" font-size="13" font-weight="400" font-style="normal" 
>
<polyline fill="none" vector-effect="none" points="317.795,425.5 318.777,419.637 319.758,413.866 320.74,408.279 321.721,402.965 322.703,398.006 323.684,393.482 324.665,389.464 325.647,386.015 326.628,383.19 327.61,381.034 328.591,379.581 329.573,378.853 330.554,378.862 331.536,379.608 332.517,381.08 333.498,383.253 334.48,386.094 335.461,389.558 336.443,393.589 337.424,398.125 338.406,403.093 339.387,408.416 340.368,414.008 341.35,419.783 342.331,425.647 343.313,431.509 344.294,437.276 345.276,442.857 346.257,448.164 347.239,453.113 348.22,457.625 349.201,461.63 350.183,465.063 351.164,467.872 352.146,470.011 353.127,471.446 354.109,472.156 355.09,472.128 356.071,471.364 357.053,469.874 358.034,467.684 359.016,464.827 359.997,461.348 360.979,457.303 361.96,452.756 362.941,447.777 363.923,442.447 364.904,436.849 365.886,431.072 366.867,425.206 367.849,419.345 368.83,413.582 369.812,408.006 370.793,402.708 371.774,397.769 372.756,393.268 373.737,389.277 374.719,385.859 375.7,383.066 376.682,380.945 377.663,379.527 378.645,378.836 379.626,378.882 380.607,379.665 381.589,381.172 382.57,383.38 383.552,386.253 384.533,389.746 385.515,393.805 386.496,398.364 387.477,403.352 388.459,408.69 389.44,414.294 390.422,420.074 391.403,425.941 392.385,431.8 393.366,437.56 394.347,443.13 395.329,448.421 396.31,453.349 397.292,457.838 398.273,461.815 399.255,465.219 400.236,467.995 401.218,470.1 402.199,471.499 403.18,472.172 404.162,472.107 405.143,471.306 406.125,469.781 407.106,467.557 408.088,464.667 409.069,461.159 410.05,457.087 411.032,452.516 412.013,447.519 412.995,442.173 413.976,436.564 414.958,430.78 415.939,424.912 416.921,419.054 417.902,413.298 418.883,407.734 419.865,402.451 420.846,397.533 421.828,393.056 422.809,389.092 423.791,385.704 424.772,382.944 425.753,380.857 426.735,379.475 427.716,378.82 428.698,378.904 429.679,379.723 430.661,381.266 431.642,383.508 432.623,386.413 433.605,389.936 434.586,394.021 435.568,398.604 436.549,403.611 437.531,408.965 438.512,414.579 439.494,420.366 440.475,426.235 441.456,432.092 442.438,437.844 443.419,443.402 444.401,448.676 445.382,453.585 446.364,458.049 447.345,462 448.326,465.373 449.308,468.117 450.289,470.186 451.271,471.55 452.252,472.186 453.234,472.085 454.215,471.247 455.197,469.686 456.178,467.428 457.159,464.506 458.141,460.968 459.122,456.87 460.104,452.276 461.085,447.259 462.067,441.898 463.048,436.278 464.029,430.487 465.011,424.618 465.992,418.763 466.974,413.014 467.955,407.463 468.937,402.196 469.918,397.298 470.899,392.845 471.881,388.909 472.862,385.55 473.844,382.823 474.825,380.771 475.807,379.425 476.788,378.807 477.77,378.927 478.751,379.783 479.732,381.362 480.714,383.638 481.695,386.575 482.677,390.128 483.658,394.239 484.64,398.845 485.621,403.871 486.602,409.24 487.584,414.865 488.565,420.659 489.547,426.529 490.528,432.382 491.51,438.127 492.491,443.673 493.473,448.931 494.454,453.819 495.435,458.26 496.417,462.182 497.398,465.526 498.38,468.236 499.361,470.272 500.343,471.6 501.324,472.199 502.305,472.06 503.287,471.186 504.268,469.59 505.25,467.297 506.231,464.343 507.213,460.776 508.194,456.652 509.175,452.035 510.157,446.998 511.138,441.622 512.12,435.992 513.101,430.195 514.083,424.324 515.064,418.472 516.046,412.731 517.027,407.192 518.008,401.942 518.99,397.064 519.971,392.636 520.953,388.727 521.934,385.399 522.916,382.704 523.897,380.686 524.878,379.376 525.86,378.796 526.841,378.953 527.823,379.845 528.804,381.459 529.786,383.769 530.767,386.738 531.748,390.32 532.73,394.458 533.711,399.087 534.693,404.132 535.674,409.516 536.656,415.152 537.637,420.951 538.619,426.823 539.6,432.673 540.581,438.41 541.563,443.943 542.544,449.185 543.526,454.052 544.507,458.469 545.489,462.364 546.47,465.677 547.451,468.354 548.433,470.355 549.414,471.647 550.396,472.21 551.377,472.034 552.359,471.123 553.34,469.491 554.322,467.165 555.303,464.179 556.284,460.583 557.266,456.432 558.247,451.792 559.229,446.737 560.21,441.346 561.192,435.705 562.173,429.903 563.154,424.031 564.136,418.182 565.117,412.449 566.099,406.922 567.08,401.688 568.062,396.831 569.043,392.427 570.024,388.546 571.006,385.249 571.987,382.587 572.969,380.604 573.95,379.33 574.932,378.786 575.913,378.98 576.895,379.909 577.876,381.558 578.857,383.902 579.839,386.903 580.82,390.515 581.802,394.679 582.783,399.33 583.765,404.394 584.746,409.792 585.727,415.439 586.709,421.244 587.69,427.116 588.672,432.963 589.653,438.692 590.635,444.213 591.616,449.438 592.598,454.285 593.579,458.676 594.56,462.544 595.542,465.826 596.523,468.471 597.505,470.437 598.486,471.693 599.468,472.218 600.449,472.006 601.43,471.059 602.412,469.391 603.393,467.031 604.375,464.014 605.356,460.388 606.338,456.211 607.319,451.549 608.301,446.475 609.282,441.069 610.263,435.418 611.245,429.61 612.226,423.737 613.208,417.892 614.189,412.167 615.171,406.652 616.152,401.436 617.133,396.6 618.115,392.22 619.096,388.367 620.078,385.1 621.059,382.472 622.041,380.523 623.022,379.285 624.003,378.778 624.985,379.009 625.966,379.974 626.948,381.659 627.929,384.037 628.911,387.07 629.892,390.71 630.874,394.9 631.855,399.574 632.836,404.657 633.818,410.069 634.799,415.726 635.781,421.537 636.762,427.41 637.744,433.253 638.725,438.974 639.706,444.482 640.688,449.69 641.669,454.516 642.651,458.883 643.632,462.722 644.614,465.974 645.595,468.586 646.577,470.517 647.558,471.736 648.539,472.225 649.521,471.976 650.502,470.992 651.484,469.29 652.465,466.895 653.447,463.846 654.428,460.192 655.409,455.989 656.391,451.304 657.372,446.212 658.354,440.792 659.335,435.13 660.317,429.317 661.298,423.443 662.279,417.602 663.261,411.885 664.242,406.384 665.224,401.184 666.205,396.369 667.187,392.015 668.168,388.189 669.15,384.953 670.131,382.358 671.112,380.444 672.094,379.243 673.075,378.772 674.057,379.04 675.038,380.042 676.02,381.762 677.001,384.173 677.982,387.238 678.964,390.907 679.945,395.123 680.927,399.819 681.908,404.92 682.89,410.347 683.871,416.013 684.852,421.83 685.834,427.704 686.815,433.543 687.797,439.255 688.778,444.75 689.76,449.941 690.741,454.745 691.723,459.088 692.704,462.899 693.685,466.12 694.667,468.699 695.648,470.595 696.63,471.778 697.611,472.23 698.593,471.944 699.574,470.924 700.555,469.186 701.537,466.758 702.518,463.677 703.5,459.994 704.481,455.765 705.463,451.058 706.444,445.948 707.426,440.514 708.407,434.843 709.388,429.024 710.37,423.149 711.351,417.312 712.333,411.604 713.314,406.116 714.296,400.934 715.277,396.14 716.258,391.81 717.24,388.013 718.221,384.808 719.203,382.246 720.184,380.367 721.166,379.202 722.147,378.768 723.128,379.072 724.11,380.111 725.091,381.866 726.073,384.312 727.054,387.408 728.036,391.105 729.017,395.347 729.999,400.065 730.98,405.185 731.961,410.625 732.943,416.301 733.924,422.123 734.906,427.997 735.887,433.832 736.869,439.536 737.85,445.018 738.831,450.191 739.813,454.974 740.794,459.291 741.776,463.075 742.757,466.264 743.739,468.81 744.72,470.671 745.702,471.818 746.683,472.234 747.664,471.91 748.646,470.854 749.627,469.081 750.609,466.619 751.59,463.507 752.572,459.795 753.553,455.541 754.534,450.812 755.516,445.683 756.497,440.235 757.479,434.554 758.46,428.731 759.442,422.856 760.423,417.023 761.405,411.324 762.386,405.849 763.367,400.684 764.349,395.912 765.33,391.607 766.312,387.838 767.293,384.664 768.275,382.135 769.256,380.292 770.237,379.162 771.219,378.765 772.2,379.107 773.182,380.182 774.163,381.973 775.145,384.451 776.126,387.579 777.107,391.305 778.089,395.572 779.07,400.312 780.052,405.45 781.033,410.904 782.015,416.59 782.996,422.416 783.978,428.291 784.959,434.122 785.94,439.816 786.922,445.284 787.903,450.44 788.885,455.202 789.866,459.494 790.848,463.249 791.829,466.407 792.81,468.92 793.792,470.746 794.773,471.857 795.755,472.235 796.736,471.875 797.718,470.782 798.699,468.974 799.681,466.478 800.662,463.335 801.643,459.595 802.625,455.315 803.606,450.564 804.588,445.417 805.569,439.956 806.551,434.266 807.532,428.437 808.513,422.563 809.495,416.734 810.476,411.044 811.458,405.583 812.439,400.436 813.421,395.685 814.402,391.405 815.383,387.665 816.365,384.522 817.346,382.026 818.328,380.218 819.309,379.125 820.291,378.765 821.272,379.143 822.254,380.254 823.235,382.08 824.216,384.593 825.198,387.751 826.179,391.506 827.161,395.798 828.142,400.56 829.124,405.716 830.105,411.184 831.086,416.878 832.068,422.709 833.049,428.584 834.031,434.41 835.012,440.096 835.994,445.55 836.975,450.688 837.956,455.428 838.938,459.695 839.919,463.421 840.901,466.549 841.882,469.027 842.864,470.818 843.845,471.893 844.827,472.235 845.808,471.838 846.789,470.708 847.771,468.865 848.752,466.336 849.734,463.162 850.715,459.393 851.697,455.088 852.678,450.316 853.659,445.151 854.641,439.676 855.622,433.977 856.604,428.144 857.585,422.269 858.567,416.446 859.548,410.765 860.53,405.317 861.511,400.188 862.492,395.459 863.474,391.205 864.455,387.493 865.437,384.381 866.418,381.919 867.4,380.146 868.381,379.09 869.362,378.766 870.344,379.182 871.325,380.329 872.307,382.19 873.288,384.736 874.27,387.925 875.251,391.709 876.233,396.026 877.214,400.809 878.195,405.982 879.177,411.464 880.158,417.168 881.14,423.003 882.121,428.877 883.103,434.699 884.084,440.375 885.065,445.815 886.047,450.935 887.028,455.653 888.01,459.895 888.991,463.592 889.973,466.688 890.954,469.134 891.935,470.889 892.917,471.928 893.898,472.232 894.88,471.798 895.861,470.633 896.843,468.754 897.824,466.192 898.806,462.987 899.787,459.19 900.768,454.86 901.75,450.066 902.731,444.884 903.713,439.396 904.694,433.688 905.676,427.851 906.657,421.976 907.638,416.157 908.62,410.486 909.601,405.052 910.583,399.942 911.564,395.235 912.546,391.006 913.527,387.323 914.509,384.242 915.49,381.814 916.471,380.076 917.453,379.056 918.434,378.77 919.416,379.222 920.397,380.405 921.379,382.301 922.36,384.88 923.341,388.101 924.323,391.912 925.304,396.255 926.286,401.059 927.267,406.25 928.249,411.745 929.23,417.457 930.211,423.296 931.193,429.17 932.174,434.987 933.156,440.653 934.137,446.08 935.119,451.181 936.1,455.877 937.082,460.093 938.063,463.762 939.044,466.827 940.026,469.238 941.007,470.958 941.989,471.96 942.97,472.228 943.952,471.757 944.933,470.556 945.914,468.642 946.896,466.047 947.877,462.811 948.859,458.985 949.84,454.631 950.822,449.816 951.803,444.616 952.784,439.115 953.766,433.398 954.747,427.557 955.729,421.683 956.71,415.87 957.692,410.208 958.673,404.788 959.655,399.696 960.636,395.011 961.617,390.808 962.599,387.154 963.58,384.105 964.562,381.71 965.543,380.008 966.525,379.024 967.506,378.775 968.488,379.264 969.469,380.483 970.45,382.414 971.432,385.026 972.413,388.278 973.395,392.117 974.376,396.484 975.358,401.31 976.339,406.518 977.32,412.026 978.302,417.747 979.283,423.59 980.265,429.463 981.246,435.274 982.228,440.931 983.209,446.343 984.19,451.426 985.172,456.1 986.153,460.29 987.135,463.93 988.116,466.963 989.098,469.341 990.079,471.026 991.061,471.991 992.042,472.222 993.023,471.715 994.005,470.477 994.986,468.528 995.968,465.9 996.949,462.633 997.931,458.78 998.912,454.4 999.893,449.564 1000.87,444.348 1001.86,438.833 1002.84,433.108 1003.82,427.263 1004.8,421.39 1005.78,415.582 1006.76,409.931 1007.74,404.525 1008.73,399.451 1009.71,394.789 1010.69,390.612 1011.67,386.986 1012.65,383.969 1013.63,381.609 1014.61,379.941 1015.6,378.994 1016.58,378.782 1017.56,379.307 1018.54,380.563 1019.52,382.529 1020.5,385.174 1021.49,388.456 1022.47,392.324 1023.45,396.715 1024.43,401.562 1025.41,406.787 1026.39,412.308 1027.37,418.037 1028.36,423.884 1029.34,429.756 1030.32,435.561 1031.3,441.208 1032.28,446.606 1033.26,451.67 1034.24,456.321 1035.23,460.485 1036.21,464.097 1037.19,467.098 1038.17,469.442 1039.15,471.091 1040.13,472.02 1041.11,472.214 1042.1,471.67 1043.08,470.396 1044.06,468.413 1045.04,465.751 1046.02,462.454 1047,458.573 1047.98,454.169 1048.97,449.312 1049.95,444.078 1050.93,438.551 1051.91,432.818 1052.89,426.969 1053.87,421.097 1054.85,415.295 1055.84,409.654 1056.82,404.263 1057.8,399.208 1058.78,394.568 1059.76,390.417 1060.74,386.821 1061.72,383.835 1062.71,381.509 1063.69,379.877 1064.67,378.966 1065.65,378.79 1066.63,379.353 1067.61,380.645 1068.59,382.646 1069.58,385.323 1070.56,388.636 1071.54,392.531 1072.52,396.948 1073.5,401.815 1074.48,407.057 1075.46,412.59 1076.45,418.327 1077.43,424.177 1078.41,430.049 1079.39,435.848 1080.37,441.484 1081.35,446.868 1082.33,451.913 1083.32,456.542 1084.3,460.68 1085.28,464.262 1086.26,467.231 1087.24,469.541 1088.22,471.155 1089.2,472.047 1090.19,472.204 1091.17,471.624 1092.15,470.314 1093.13,468.296 1094.11,465.601 1095.09,462.273 1096.07,458.364 1097.06,453.936 1098.04,449.058 1099.02,443.808 1100,438.269 1100.98,432.528 1101.96,426.676 1102.94,420.805 1103.93,415.008 1104.91,409.378 1105.89,404.002 1106.87,398.965 1107.85,394.348 1108.83,390.224 1109.81,386.657 1110.8,383.703 1111.78,381.41 1112.76,379.814 1113.74,378.94 1114.72,378.801 1115.7,379.4 1116.68,380.728 1117.67,382.764 1118.65,385.474 1119.63,388.818 1120.61,392.74 1121.59,397.181 1122.57,402.069 1123.55,407.327 1124.54,412.873 1125.52,418.618 1126.5,424.471 1127.48,430.341 1128.46,436.135 1129.44,441.76 1130.42,447.129 1131.41,452.155 1132.39,456.761 1133.37,460.872 1134.35,464.425 1135.33,467.362 1136.31,469.638 1137.29,471.217 1138.28,472.073 1139.26,472.193 1140.24,471.575 1141.22,470.229 1142.2,468.177 1143.18,465.45 1144.16,462.091 1145.15,458.155 1146.13,453.702 1147.11,448.804 1148.09,443.537 1149.07,437.986 1150.05,432.237 1151.03,426.382 1152.02,420.513 1153,414.722 1153.98,409.102 1154.96,403.741 1155.94,398.724 1156.92,394.13 1157.9,390.032 1158.89,386.494 1159.87,383.572 1160.85,381.314 1161.83,379.753 1162.81,378.915 1163.79,378.814 1164.77,379.45 1165.76,380.814 1166.74,382.883 1167.72,385.627 1168.7,389 1169.68,392.951 1170.66,397.415 1171.64,402.324 1172.63,407.598 1173.61,413.156 1174.59,418.908 1175.57,424.765 1176.55,430.634 1177.53,436.421 1178.51,442.035 1179.5,447.389 1180.48,452.396 1181.46,456.979 1182.44,461.064 1183.42,464.587 1184.4,467.492 1185.38,469.734 1186.37,471.277 1187.35,472.096 1188.33,472.18 1189.31,471.525 1190.29,470.143 1191.27,468.056 1192.25,465.296 1193.24,461.908 1194.22,457.944 1195.2,453.467 1196.18,448.549 1197.16,443.266 1198.14,437.702 1199.13,431.946 1200.11,426.088 1201.09,420.22 1202.07,414.436 1203.05,408.827 1204.03,403.481 1205.01,398.484 1205.99,393.913 1206.98,389.841 1207.96,386.333 1208.94,383.443 1209.92,381.219 1210.9,379.694 1211.88,378.893 1212.87,378.828 1213.85,379.501 1214.83,380.9 1215.81,383.005 1216.79,385.781 1217.77,389.185 1218.75,393.162 1219.74,397.651 1220.72,402.579 1221.7,407.87 1222.68,413.44 1223.66,419.2 1224.64,425.059 1225.62,430.926 1226.61,436.706 1227.59,442.31 1228.57,447.648 1229.55,452.636 1230.53,457.195 1231.51,461.254 1232.49,464.747 1233.48,467.62 1234.46,469.828 1235.44,471.335 1236.42,472.118 1237.4,472.164 1238.38,471.473 1239.36,470.055 1240.35,467.934 1241.33,465.141 1242.31,461.723 1243.29,457.732 1244.27,453.231 1245.25,448.292 1246.23,442.994 1247.22,437.418 1248.2,431.655 1249.18,425.794 1250.16,419.928 1251.14,414.151 1252.12,408.553 1253.1,403.223 1254.09,398.244 1255.07,393.697 1256.05,389.652 1257.03,386.173 1258.01,383.316 1258.99,381.126 1259.97,379.636 1260.96,378.872 1261.94,378.844 1262.92,379.554 1263.9,380.989 1264.88,383.128 1265.86,385.937 1266.84,389.37 1267.83,393.375 1268.81,397.887 1269.79,402.836 1270.77,408.143 1271.75,413.724 1272.73,419.491 1273.71,425.353 1274.7,431.217 1275.68,436.992 1276.66,442.584 1277.64,447.907 1278.62,452.875 1279.6,457.411 1280.58,461.442 1281.57,464.906 1282.55,467.747 1283.53,469.92 1284.51,471.392 1285.49,472.138 1286.47,472.147 1287.45,471.419 1288.44,469.966 1289.42,467.81 1290.4,464.985 1291.38,461.536 1292.36,457.518 1293.34,452.994 1294.32,448.035 1295.31,442.721 1296.29,437.134 1297.27,431.363 1298.25,425.5 " />
</g>

<g fill="#212121" fill-opacity="1" stroke="none" transform="matrix(0.5,0,0,0.5,0.499992,186.57)"
font-family=".AppleSystemUIFont" font-size="13" font-weight="400" font-style="normal" 
>
<path vector-effect="none" fill-rule="evenodd" d="M2.70703,-8.2793 C2.50781,-8.2793 2.34375,-8.35547 2.21484,-8.50781 C2.08594,-8.66016 2.02148,-8.82422 2.02148,-9 C2.02148,-9.17578 2.08594,-9.33984 2.21484,-9.49219 C2.34375,-9.64453 2.50781,-9.7207 2.70703,-9.7207 L13.2891,-9.7207 L13.2891,-20.3379 C13.2891,-20.5254 13.3594,-20.6807 13.5,-20.8037 C13.6406,-20.9268 13.8105,-20.9883 14.0098,-20.9883 C14.1855,-20.9883 14.3496,-20.9268 14.502,-20.8037 C14.6543,-20.6807 14.7305,-20.5254 14.7305,-20.3379 L14.7305,-9.7207 L25.3125,-9.7207 C25.4883,-9.7207 25.6406,-9.64453 25.7695,-9.49219 C25.8984,-9.33984 25.9629,-9.17578 25.9629,-9 C25.9629,-8.82422 25.8984,-8.66016 25.7695,-8.50781 C25.6406,-8.35547 25.4883,-8.2793 25.3125,-8.2793 L14.7305,-8.2793 L14.7305,2.33789 C14.7305,2.52539 14.6543,2.68066 14.502,2.80371 C14.3496,2.92676 14.1855,2.98828 14.0098,2.98828 C13.8105,2.98828 13.6406,2.92676 13.5,2.80371 C13.3594,2.68066 13.2891,2.52539 13.2891,2.33789 L13.2891,-8.2793 L2.70703,-8.2793"/>
</g>

<g fill="none" stroke="#75147c" stroke-opacity="1" stroke-width="4" stroke-linecap="butt" stroke-linejoin="round" transform="matrix(0.5,0,0,0.5,-126.886,-30.5)"
font-family=".AppleSystemUIFont" font-size="13" font-weight="400" font-style="normal" 
>
<polyline fill="none" vector-effect="none" points="317.795,581.883 318.777,581.057 319.758,580.233 320.74,579.413 321.721,578.598 322.703,577.789 323.684,576.99 324.665,576.199 325.647,575.419 326.628,574.651 327.61,573.894 328.591,573.15 329.573,572.419 330.554,571.699 331.536,570.991 332.517,570.294 333.498,569.607 334.48,568.929 335.461,568.258 336.443,567.592 337.424,566.93 338.406,566.269 339.387,565.608 340.368,564.945 341.35,564.277 342.331,563.602 343.313,562.919 344.294,562.225 345.276,561.518 346.257,560.798 347.239,560.062 348.22,559.31 349.201,558.542 350.183,557.756 351.164,556.953 352.146,556.134 353.127,555.299 354.109,554.449 355.09,553.586 356.071,552.713 357.053,551.831 358.034,550.944 359.016,550.055 359.997,549.167 360.979,548.284 361.96,547.411 362.941,546.551 363.923,545.71 364.904,544.892 365.886,544.102 366.867,543.344 367.849,542.623 368.83,541.943 369.812,541.31 370.793,540.728 371.774,540.199 372.756,539.729 373.737,539.32 374.719,538.976 375.7,538.698 376.682,538.489 377.663,538.35 378.645,538.283 379.626,538.288 380.607,538.364 381.589,538.511 382.57,538.729 383.552,539.015 384.533,539.368 385.515,539.785 386.496,540.262 387.477,540.798 388.459,541.387 389.44,542.026 390.422,542.711 391.403,543.436 392.385,544.199 393.366,544.993 394.347,545.814 395.329,546.658 396.31,547.519 397.292,548.394 398.273,549.277 399.255,550.166 400.236,551.055 401.218,551.942 402.199,552.822 403.18,553.695 404.162,554.556 405.143,555.404 406.125,556.237 407.106,557.055 408.088,557.855 409.069,558.639 410.05,559.405 411.032,560.155 412.013,560.888 412.995,561.607 413.976,562.312 414.958,563.005 415.939,563.687 416.921,564.361 417.902,565.028 418.883,565.691 419.865,566.352 420.846,567.012 421.828,567.675 422.809,568.341 423.791,569.013 424.772,569.693 425.753,570.381 426.735,571.079 427.716,571.788 428.698,572.509 429.679,573.243 430.661,573.988 431.642,574.746 432.623,575.516 433.605,576.297 434.586,577.089 435.568,577.89 436.549,578.699 437.531,579.515 438.512,580.336 439.494,581.16 440.475,581.986 441.456,582.811 442.438,583.635 443.419,584.455 444.401,585.269 445.382,586.076 446.364,586.875 447.345,587.664 448.326,588.443 449.308,589.209 450.289,589.964 451.271,590.707 452.252,591.437 453.234,592.155 454.215,592.862 455.197,593.557 456.178,594.243 457.159,594.92 458.141,595.591 459.122,596.256 460.104,596.918 461.085,597.578 462.067,598.239 463.048,598.903 464.029,599.572 465.011,600.248 465.992,600.932 466.974,601.628 467.955,602.336 468.937,603.058 469.918,603.796 470.899,604.55 471.881,605.32 472.862,606.108 473.844,606.913 474.825,607.735 475.807,608.572 476.788,609.423 477.77,610.287 478.751,611.162 479.732,612.045 480.714,612.932 481.695,613.822 482.677,614.709 483.658,615.591 484.64,616.463 485.621,617.32 486.602,618.158 487.584,618.973 488.565,619.76 489.547,620.514 490.528,621.23 491.51,621.903 492.491,622.53 493.473,623.106 494.454,623.628 495.435,624.09 496.417,624.491 497.398,624.828 498.38,625.097 499.361,625.297 500.343,625.427 501.324,625.485 502.305,625.472 503.287,625.387 504.268,625.23 505.25,625.004 506.231,624.709 507.213,624.348 508.194,623.924 509.175,623.439 510.157,622.897 511.138,622.301 512.12,621.656 513.101,620.966 514.083,620.235 515.064,619.469 516.046,618.671 517.027,617.846 518.008,617 518.99,616.137 519.971,615.261 520.953,614.377 521.934,613.488 522.916,612.599 523.897,611.713 524.878,610.833 525.86,609.962 526.841,609.102 527.823,608.256 528.804,607.425 529.786,606.609 530.767,605.811 531.748,605.029 532.73,604.265 533.711,603.518 534.693,602.786 535.674,602.069 536.656,601.366 537.637,600.674 538.619,599.993 539.6,599.32 540.581,598.654 541.563,597.991 542.544,597.331 543.526,596.67 544.507,596.007 545.489,595.34 546.47,594.667 547.451,593.987 548.433,593.297 549.414,592.598 550.396,591.887 551.377,591.165 552.359,590.43 553.34,589.683 554.322,588.923 555.303,588.152 556.284,587.369 557.266,586.576 558.247,585.774 559.229,584.964 560.21,584.148 561.192,583.326 562.173,582.502 563.154,581.676 564.136,580.851 565.117,580.028 566.099,579.208 567.08,578.395 568.062,577.589 569.043,576.791 570.024,576.003 571.006,575.226 571.987,574.461 572.969,573.707 573.95,572.966 574.932,572.238 575.913,571.521 576.895,570.816 577.876,570.122 578.857,569.437 579.839,568.76 580.82,568.091 581.802,567.426 582.783,566.764 583.765,566.104 584.746,565.443 585.727,564.778 586.709,564.109 587.69,563.432 588.672,562.746 589.653,562.049 590.635,561.339 591.616,560.615 592.598,559.876 593.579,559.12 594.56,558.347 595.542,557.557 596.523,556.75 597.505,555.926 598.486,555.087 599.468,554.234 600.449,553.369 601.43,552.493 602.412,551.61 603.393,550.722 604.375,549.832 605.356,548.945 606.338,548.065 607.319,547.194 608.301,546.339 609.282,545.503 610.263,544.692 611.245,543.909 612.226,543.16 613.208,542.449 614.189,541.781 615.171,541.16 616.152,540.59 617.133,540.076 618.115,539.621 619.096,539.228 620.078,538.9 621.059,538.639 622.041,538.448 623.022,538.327 624.003,538.277 624.985,538.3 625.966,538.394 626.948,538.559 627.929,538.794 628.911,539.097 629.892,539.466 630.874,539.898 631.855,540.391 632.836,540.94 633.818,541.542 634.799,542.193 635.781,542.888 636.762,543.624 637.744,544.394 638.725,545.196 639.706,546.023 640.688,546.872 641.669,547.737 642.651,548.614 643.632,549.499 644.614,550.388 645.595,551.277 646.577,552.162 647.558,553.041 648.539,553.911 649.521,554.769 650.502,555.614 651.484,556.443 652.465,557.256 653.447,558.053 654.428,558.832 655.409,559.594 656.391,560.34 657.372,561.069 658.354,561.784 659.335,562.486 660.317,563.176 661.298,563.856 662.279,564.528 663.261,565.194 664.242,565.856 665.224,566.517 666.205,567.178 667.187,567.841 668.168,568.509 669.15,569.182 670.131,569.864 671.112,570.554 672.094,571.255 673.075,571.967 674.057,572.692 675.038,573.428 676.02,574.177 677.001,574.938 677.982,575.71 678.964,576.494 679.945,577.288 680.927,578.092 681.908,578.903 682.89,579.72 683.871,580.542 684.852,581.366 685.834,582.192 686.815,583.017 687.797,583.84 688.778,584.659 689.76,585.471 690.741,586.277 691.723,587.073 692.704,587.86 693.685,588.635 694.667,589.399 695.648,590.151 696.63,590.891 697.611,591.618 698.593,592.333 699.574,593.036 700.555,593.729 701.537,594.413 702.518,595.089 703.5,595.758 704.481,596.422 705.463,597.083 706.444,597.743 707.426,598.405 708.407,599.07 709.388,599.74 710.37,600.418 711.351,601.105 712.333,601.804 713.314,602.515 714.296,603.241 715.277,603.983 716.258,604.741 717.24,605.516 718.221,606.308 719.203,607.117 720.184,607.943 721.166,608.783 722.147,609.638 723.128,610.505 724.11,611.382 725.091,612.266 726.073,613.155 727.054,614.044 728.036,614.93 729.017,615.81 729.999,616.678 730.98,617.531 731.961,618.365 732.943,619.173 733.924,619.952 734.906,620.696 735.887,621.402 736.869,622.065 737.85,622.679 738.831,623.242 739.813,623.749 740.794,624.196 741.776,624.581 742.757,624.901 743.739,625.154 744.72,625.336 745.702,625.448 746.683,625.489 747.664,625.457 748.646,625.354 749.627,625.18 750.609,624.937 751.59,624.625 752.572,624.248 753.553,623.808 754.534,623.308 755.516,622.753 756.497,622.144 757.479,621.488 758.46,620.787 759.442,620.047 760.423,619.272 761.405,618.467 762.386,617.637 763.367,616.786 764.349,615.919 765.33,615.041 766.312,614.155 767.293,613.266 768.275,612.377 769.256,611.492 770.237,610.614 771.219,609.746 772.2,608.89 773.182,608.047 774.163,607.219 775.145,606.408 776.126,605.614 777.107,604.837 778.089,604.077 779.07,603.333 780.052,602.605 781.033,601.892 782.015,601.192 782.996,600.503 783.978,599.824 784.959,599.153 785.94,598.488 786.922,597.826 787.903,597.166 788.885,596.505 789.866,595.841 790.848,595.173 791.829,594.498 792.81,593.815 793.792,593.124 794.773,592.421 795.755,591.708 796.736,590.982 797.718,590.244 798.699,589.494 799.681,588.732 800.662,587.957 801.643,587.172 802.625,586.377 803.606,585.572 804.588,584.761 805.569,583.943 806.551,583.12 807.532,582.295 808.513,581.47 809.495,580.645 810.476,579.822 811.458,579.004 812.439,578.193 813.421,577.388 814.402,576.593 815.383,575.808 816.365,575.034 817.346,574.271 818.328,573.521 819.309,572.783 820.291,572.057 821.272,571.344 822.254,570.641 823.235,569.95 824.216,569.267 825.198,568.592 826.179,567.924 827.161,567.26 828.142,566.599 829.124,565.939 830.105,565.277 831.086,564.612 832.068,563.94 833.049,563.262 834.031,562.573 835.012,561.873 835.994,561.16 836.975,560.432 837.956,559.688 838.938,558.928 839.919,558.151 840.901,557.357 841.882,556.546 842.864,555.718 843.845,554.875 844.827,554.019 845.808,553.151 846.789,552.273 847.771,551.388 848.752,550.499 849.734,549.61 850.715,548.724 851.697,547.846 852.678,546.979 853.659,546.128 854.641,545.298 855.622,544.493 856.604,543.718 857.585,542.978 858.567,542.277 859.548,541.621 860.53,541.012 861.511,540.457 862.492,539.957 863.474,539.517 864.455,539.14 865.437,538.828 866.418,538.585 867.4,538.411 868.381,538.308 869.362,538.276 870.344,538.317 871.325,538.429 872.307,538.612 873.288,538.864 874.27,539.183 875.251,539.569 876.233,540.016 877.214,540.523 878.195,541.086 879.177,541.7 880.158,542.363 881.14,543.069 882.121,543.813 883.103,544.592 884.084,545.4 885.065,546.233 886.047,547.087 887.028,547.955 888.01,548.835 888.991,549.721 889.973,550.61 890.954,551.499 891.935,552.383 892.917,553.26 893.898,554.127 894.88,554.982 895.861,555.822 896.843,556.648 897.824,557.457 898.806,558.249 899.787,559.024 900.768,559.782 901.75,560.524 902.731,561.25 903.713,561.961 904.694,562.66 905.676,563.347 906.657,564.025 907.638,564.695 908.62,565.36 909.601,566.022 910.583,566.682 911.564,567.343 912.546,568.007 913.527,568.676 914.509,569.352 915.49,570.036 916.471,570.729 917.453,571.432 918.434,572.147 919.416,572.874 920.397,573.614 921.379,574.366 922.36,575.13 923.341,575.905 924.323,576.692 925.304,577.488 926.286,578.294 927.267,579.106 928.249,579.925 929.23,580.748 930.211,581.573 931.193,582.399 932.174,583.223 933.156,584.045 934.137,584.862 935.119,585.673 936.1,586.477 937.082,587.271 938.063,588.055 939.044,588.827 940.026,589.588 941.007,590.337 941.989,591.073 942.97,591.798 943.952,592.51 944.933,593.211 945.914,593.901 946.896,594.583 947.877,595.256 948.859,595.924 949.84,596.587 950.822,597.248 951.803,597.909 952.784,598.571 953.766,599.237 954.747,599.909 955.729,600.589 956.71,601.279 957.692,601.98 958.673,602.695 959.655,603.425 960.636,604.171 961.617,604.933 962.599,605.712 963.58,606.509 964.562,607.322 965.543,608.151 966.525,608.996 967.506,609.854 968.488,610.724 969.469,611.603 970.45,612.488 971.432,613.377 972.413,614.266 973.395,615.151 974.376,616.028 975.358,616.893 976.339,617.742 977.32,618.569 978.302,619.371 979.283,620.141 980.265,620.877 981.246,621.572 982.228,622.223 983.209,622.825 984.19,623.374 985.172,623.866 986.153,624.299 987.135,624.668 988.116,624.971 989.098,625.206 990.079,625.371 991.061,625.465 992.042,625.488 993.023,625.438 994.005,625.317 994.986,625.126 995.968,624.865 996.949,624.537 997.931,624.144 998.912,623.689 999.893,623.175 1000.87,622.605 1001.86,621.984 1002.84,621.316 1003.82,620.605 1004.8,619.856 1005.78,619.073 1006.76,618.262 1007.74,617.426 1008.73,616.571 1009.71,615.7 1010.69,614.82 1011.67,613.933 1012.65,613.043 1013.63,612.155 1014.61,611.272 1015.6,610.396 1016.58,609.531 1017.56,608.678 1018.54,607.839 1019.52,607.015 1020.5,606.208 1021.49,605.418 1022.47,604.645 1023.45,603.889 1024.43,603.15 1025.41,602.426 1026.39,601.716 1027.37,601.019 1028.36,600.333 1029.34,599.656 1030.32,598.987 1031.3,598.322 1032.28,597.661 1033.26,597.001 1034.24,596.339 1035.23,595.674 1036.21,595.005 1037.19,594.328 1038.17,593.643 1039.15,592.949 1040.13,592.244 1041.11,591.527 1042.1,590.799 1043.08,590.058 1044.06,589.304 1045.04,588.539 1046.02,587.762 1047,586.974 1047.98,586.176 1048.97,585.37 1049.95,584.557 1050.93,583.737 1051.91,582.914 1052.89,582.089 1053.87,581.263 1054.85,580.439 1055.84,579.617 1056.82,578.801 1057.8,577.991 1058.78,577.189 1059.76,576.396 1060.74,575.613 1061.72,574.842 1062.71,574.082 1063.69,573.335 1064.67,572.6 1065.65,571.878 1066.63,571.167 1067.61,570.468 1068.59,569.778 1069.58,569.098 1070.56,568.425 1071.54,567.758 1072.52,567.095 1073.5,566.434 1074.48,565.774 1075.46,565.111 1076.45,564.444 1077.43,563.772 1078.41,563.09 1079.39,562.399 1080.37,561.696 1081.35,560.979 1082.33,560.247 1083.32,559.5 1084.3,558.736 1085.28,557.954 1086.26,557.156 1087.24,556.34 1088.22,555.509 1089.2,554.663 1090.19,553.803 1091.17,552.932 1092.15,552.052 1093.13,551.166 1094.11,550.277 1095.09,549.388 1096.07,548.504 1097.06,547.628 1098.04,546.765 1099.02,545.919 1100,545.094 1100.98,544.296 1101.96,543.53 1102.94,542.799 1103.93,542.109 1104.91,541.464 1105.89,540.868 1106.87,540.326 1107.85,539.841 1108.83,539.417 1109.81,539.056 1110.8,538.761 1111.78,538.535 1112.76,538.378 1113.74,538.293 1114.72,538.28 1115.7,538.338 1116.68,538.468 1117.67,538.668 1118.65,538.937 1119.63,539.274 1120.61,539.675 1121.59,540.137 1122.57,540.659 1123.55,541.235 1124.54,541.862 1125.52,542.535 1126.5,543.251 1127.48,544.005 1128.46,544.792 1129.44,545.607 1130.42,546.445 1131.41,547.302 1132.39,548.174 1133.37,549.056 1134.35,549.943 1135.33,550.833 1136.31,551.72 1137.29,552.603 1138.28,553.477 1139.26,554.342 1140.24,555.193 1141.22,556.03 1142.2,556.852 1143.18,557.657 1144.16,558.445 1145.15,559.215 1146.13,559.969 1147.11,560.707 1148.09,561.429 1149.07,562.137 1150.05,562.833 1151.03,563.517 1152.02,564.193 1153,564.862 1153.98,565.526 1154.96,566.187 1155.94,566.847 1156.92,567.509 1157.9,568.174 1158.89,568.845 1159.87,569.522 1160.85,570.208 1161.83,570.904 1162.81,571.61 1163.79,572.328 1164.77,573.058 1165.76,573.801 1166.74,574.556 1167.72,575.323 1168.7,576.101 1169.68,576.89 1170.66,577.689 1171.64,578.496 1172.63,579.31 1173.61,580.13 1174.59,580.954 1175.57,581.779 1176.55,582.605 1177.53,583.429 1178.51,584.25 1179.5,585.066 1180.48,585.875 1181.46,586.676 1182.44,587.468 1183.42,588.249 1184.4,589.019 1185.38,589.777 1186.37,590.522 1187.35,591.256 1188.33,591.977 1189.31,592.686 1190.29,593.384 1191.27,594.072 1192.25,594.752 1193.24,595.424 1194.22,596.09 1195.2,596.753 1196.18,597.413 1197.16,598.074 1198.14,598.737 1199.13,599.404 1200.11,600.078 1201.09,600.76 1202.07,601.453 1203.05,602.158 1204.03,602.877 1205.01,603.61 1205.99,604.36 1206.98,605.126 1207.96,605.91 1208.94,606.71 1209.92,607.528 1210.9,608.361 1211.88,609.209 1212.87,610.07 1213.85,610.943 1214.83,611.823 1215.81,612.71 1216.79,613.599 1217.77,614.488 1218.75,615.371 1219.74,616.246 1220.72,617.107 1221.7,617.951 1222.68,618.772 1223.66,619.566 1224.64,620.329 1225.62,621.055 1226.61,621.739 1227.59,622.378 1228.57,622.967 1229.55,623.503 1230.53,623.98 1231.51,624.397 1232.49,624.75 1233.48,625.036 1234.46,625.254 1235.44,625.401 1236.42,625.477 1237.4,625.482 1238.38,625.415 1239.36,625.276 1240.35,625.067 1241.33,624.789 1242.31,624.445 1243.29,624.036 1244.27,623.566 1245.25,623.037 1246.23,622.455 1247.22,621.822 1248.2,621.142 1249.18,620.422 1250.16,619.663 1251.14,618.873 1252.12,618.055 1253.1,617.214 1254.09,616.354 1255.07,615.481 1256.05,614.598 1257.03,613.711 1258.01,612.821 1258.99,611.934 1259.97,611.052 1260.96,610.179 1261.94,609.316 1262.92,608.466 1263.9,607.631 1264.88,606.812 1265.86,606.009 1266.84,605.223 1267.83,604.455 1268.81,603.703 1269.79,602.967 1270.77,602.247 1271.75,601.54 1272.73,600.846 1273.71,600.163 1274.7,599.488 1275.68,598.82 1276.66,598.157 1277.64,597.496 1278.62,596.835 1279.6,596.173 1280.58,595.507 1281.57,594.836 1282.55,594.158 1283.53,593.471 1284.51,592.774 1285.49,592.066 1286.47,591.346 1287.45,590.615 1288.44,589.871 1289.42,589.114 1290.4,588.346 1291.38,587.566 1292.36,586.776 1293.34,585.976 1294.32,585.167 1295.31,584.352 1296.29,583.532 1297.27,582.708 1298.25,581.883 " />
</g>

<g fill="#212121" fill-opacity="1" stroke="none" transform="matrix(0.5,0,0,0.5,0.499992,264.761)"
font-family=".AppleSystemUIFont" font-size="13" font-weight="400" font-style="normal" 
>
<path vector-effect="none" fill-rule="evenodd" d="M2.70703,-4.78125 C2.50781,-4.78125 2.34375,-4.85742 2.21484,-5.00977 C2.08594,-5.16211 2.02148,-5.32617 2.02148,-5.50195 C2.02148,-5.70117 2.08594,-5.87109 2.21484,-6.01172 C2.34375,-6.15234 2.50781,-6.22266 2.70703,-6.22266 L25.3125,-6.22266 C25.4883,-6.22266 25.6406,-6.15234 25.7695,-6.01172 C25.8984,-5.87109 25.9629,-5.70117 25.9629,-5.50195 C25.9629,-5.32617 25.8984,-5.16211 25.7695,-5.00977 C25.6406,-4.85742 25.4883,-4.78125 25.3125,-4.78125 L2.70703,-4.78125 M2.70703,-11.7773 C2.50781,-11.7773 2.34375,-11.8477 2.21484,-11.9883 C2.08594,-12.1289 2.02148,-12.2988 2.02148,-12.498 C2.02148,-12.6738 2.08594,-12.8379 2.21484,-12.9902 C2.34375,-13.1426 2.50781,-13.2188 2.70703,-13.2188 L25.3125,-13.2188 C25.4883,-13.2188 25.6406,-13.1426 25.7695,-12.9902 C25.8984,-12.8379 25.9629,-12.6738 25.9629,-12.498 C25.9629,-12.2988 25.8984,-12.1289 25.7695,-11.9883 C25.6406,-11.8477 25.4883,-11.7773 25.3125,-11.7773 L2.70703,-11.7773"/>
</g>

<g fill="none" stroke="#75147c" stroke-opacity="1" stroke-width="4" stroke-linecap="butt" stroke-linejoin="round" transform="matrix(0.5,0,0,0.5,-126.886,-30.5)"
font-family=".AppleSystemUIFont" font-size="13" font-weight="400" font-style="normal" 
>
<polyline fill="none" vector-effect="none" points="317.795,738.265 318.777,737.516 319.758,736.768 320.74,736.019 321.721,735.271 322.703,734.522 323.684,733.774 324.665,733.025 325.647,732.277 326.628,731.528 327.61,730.78 328.591,730.031 329.573,729.283 330.554,728.534 331.536,727.786 332.517,727.037 333.498,726.289 334.48,725.54 335.461,724.792 336.443,724.043 337.424,723.295 338.406,722.546 339.387,721.798 340.368,721.049 341.35,720.301 342.331,719.552 343.313,718.804 344.294,718.055 345.276,717.307 346.257,716.558 347.239,715.81 348.22,715.061 349.201,714.313 350.183,713.564 351.164,712.816 352.146,712.067 353.127,711.319 354.109,710.57 355.09,709.822 356.071,709.073 357.053,708.325 358.034,707.576 359.016,706.828 359.997,706.079 360.979,705.331 361.96,704.582 362.941,703.834 363.923,703.085 364.904,702.337 365.886,701.588 366.867,700.84 367.849,700.091 368.83,699.343 369.812,698.594 370.793,697.846 371.774,697.097 372.756,696.349 373.737,695.6 374.719,694.852 375.7,694.103 376.682,693.354 377.663,692.606 378.645,691.857 379.626,691.951 380.607,692.7 381.589,693.448 382.57,694.197 383.552,694.945 384.533,695.694 385.515,696.442 386.496,697.191 387.477,697.939 388.459,698.688 389.44,699.436 390.422,700.185 391.403,700.933 392.385,701.682 393.366,702.43 394.347,703.179 395.329,703.927 396.31,704.676 397.292,705.424 398.273,706.173 399.255,706.921 400.236,707.67 401.218,708.418 402.199,709.167 403.18,709.915 404.162,710.664 405.143,711.412 406.125,712.161 407.106,712.909 408.088,713.658 409.069,714.406 410.05,715.155 411.032,715.903 412.013,716.652 412.995,717.4 413.976,718.149 414.958,718.897 415.939,719.646 416.921,720.394 417.902,721.143 418.883,721.891 419.865,722.64 420.846,723.388 421.828,724.137 422.809,724.885 423.791,725.634 424.772,726.382 425.753,727.131 426.735,727.879 427.716,728.628 428.698,729.376 429.679,730.125 430.661,730.873 431.642,731.622 432.623,732.37 433.605,733.119 434.586,733.867 435.568,734.616 436.549,735.365 437.531,736.113 438.512,736.862 439.494,737.61 440.475,738.359 441.456,739.107 442.438,739.856 443.419,740.604 444.401,741.353 445.382,742.101 446.364,742.85 447.345,743.598 448.326,744.347 449.308,745.095 450.289,745.844 451.271,746.592 452.252,747.341 453.234,748.089 454.215,748.838 455.197,749.586 456.178,750.335 457.159,751.083 458.141,751.832 459.122,752.58 460.104,753.329 461.085,754.077 462.067,754.826 463.048,755.574 464.029,756.323 465.011,757.071 465.992,757.82 466.974,758.568 467.955,759.317 468.937,760.065 469.918,760.814 470.899,761.562 471.881,762.311 472.862,763.059 473.844,763.808 474.825,764.556 475.807,765.305 476.788,766.053 477.77,766.802 478.751,767.55 479.732,768.299 480.714,769.047 481.695,769.796 482.677,770.544 483.658,771.293 484.64,772.041 485.621,772.79 486.602,773.538 487.584,774.287 488.565,775.035 489.547,775.784 490.528,776.532 491.51,777.281 492.491,778.03 493.473,778.778 494.454,779.527 495.435,780.275 496.417,781.024 497.398,781.772 498.38,782.521 499.361,783.269 500.343,784.018 501.324,784.766 502.305,784.485 503.287,783.737 504.268,782.988 505.25,782.24 506.231,781.491 507.213,780.743 508.194,779.994 509.175,779.246 510.157,778.497 511.138,777.749 512.12,777 513.101,776.252 514.083,775.503 515.064,774.755 516.046,774.006 517.027,773.258 518.008,772.509 518.99,771.761 519.971,771.012 520.953,770.264 521.934,769.515 522.916,768.767 523.897,768.018 524.878,767.27 525.86,766.521 526.841,765.773 527.823,765.024 528.804,764.276 529.786,763.527 530.767,762.779 531.748,762.03 532.73,761.282 533.711,760.533 534.693,759.785 535.674,759.036 536.656,758.288 537.637,757.539 538.619,756.791 539.6,756.042 540.581,755.294 541.563,754.545 542.544,753.797 543.526,753.048 544.507,752.299 545.489,751.551 546.47,750.802 547.451,750.054 548.433,749.305 549.414,748.557 550.396,747.808 551.377,747.06 552.359,746.311 553.34,745.563 554.322,744.814 555.303,744.066 556.284,743.317 557.266,742.569 558.247,741.82 559.229,741.072 560.21,740.323 561.192,739.575 562.173,738.826 563.154,738.078 564.136,737.329 565.117,736.581 566.099,735.832 567.08,735.084 568.062,734.335 569.043,733.587 570.024,732.838 571.006,732.09 571.987,731.341 572.969,730.593 573.95,729.844 574.932,729.096 575.913,728.347 576.895,727.599 577.876,726.85 578.857,726.102 579.839,725.353 580.82,724.605 581.802,723.856 582.783,723.108 583.765,722.359 584.746,721.611 585.727,720.862 586.709,720.114 587.69,719.365 588.672,718.617 589.653,717.868 590.635,717.12 591.616,716.371 592.598,715.623 593.579,714.874 594.56,714.126 595.542,713.377 596.523,712.629 597.505,711.88 598.486,711.132 599.468,710.383 600.449,709.635 601.43,708.886 602.412,708.138 603.393,707.389 604.375,706.641 605.356,705.892 606.338,705.143 607.319,704.395 608.301,703.646 609.282,702.898 610.263,702.149 611.245,701.401 612.226,700.652 613.208,699.904 614.189,699.155 615.171,698.407 616.152,697.658 617.133,696.91 618.115,696.161 619.096,695.413 620.078,694.664 621.059,693.916 622.041,693.167 623.022,692.419 624.003,691.67 624.985,692.138 625.966,692.887 626.948,693.635 627.929,694.384 628.911,695.132 629.892,695.881 630.874,696.629 631.855,697.378 632.836,698.126 633.818,698.875 634.799,699.623 635.781,700.372 636.762,701.12 637.744,701.869 638.725,702.617 639.706,703.366 640.688,704.114 641.669,704.863 642.651,705.611 643.632,706.36 644.614,707.108 645.595,707.857 646.577,708.605 647.558,709.354 648.539,710.102 649.521,710.851 650.502,711.599 651.484,712.348 652.465,713.096 653.447,713.845 654.428,714.593 655.409,715.342 656.391,716.09 657.372,716.839 658.354,717.587 659.335,718.336 660.317,719.084 661.298,719.833 662.279,720.581 663.261,721.33 664.242,722.078 665.224,722.827 666.205,723.576 667.187,724.324 668.168,725.073 669.15,725.821 670.131,726.57 671.112,727.318 672.094,728.067 673.075,728.815 674.057,729.564 675.038,730.312 676.02,731.061 677.001,731.809 677.982,732.558 678.964,733.306 679.945,734.055 680.927,734.803 681.908,735.552 682.89,736.3 683.871,737.049 684.852,737.797 685.834,738.546 686.815,739.294 687.797,740.043 688.778,740.791 689.76,741.54 690.741,742.288 691.723,743.037 692.704,743.785 693.685,744.534 694.667,745.282 695.648,746.031 696.63,746.779 697.611,747.528 698.593,748.276 699.574,749.025 700.555,749.773 701.537,750.522 702.518,751.27 703.5,752.019 704.481,752.767 705.463,753.516 706.444,754.264 707.426,755.013 708.407,755.761 709.388,756.51 710.37,757.258 711.351,758.007 712.333,758.755 713.314,759.504 714.296,760.252 715.277,761.001 716.258,761.749 717.24,762.498 718.221,763.246 719.203,763.995 720.184,764.743 721.166,765.492 722.147,766.24 723.128,766.989 724.11,767.737 725.091,768.486 726.073,769.235 727.054,769.983 728.036,770.732 729.017,771.48 729.999,772.229 730.98,772.977 731.961,773.726 732.943,774.474 733.924,775.223 734.906,775.971 735.887,776.72 736.869,777.468 737.85,778.217 738.831,778.965 739.813,779.714 740.794,780.462 741.776,781.211 742.757,781.959 743.739,782.708 744.72,783.456 745.702,784.205 746.683,784.953 747.664,784.298 748.646,783.55 749.627,782.801 750.609,782.053 751.59,781.304 752.572,780.556 753.553,779.807 754.534,779.059 755.516,778.31 756.497,777.562 757.479,776.813 758.46,776.065 759.442,775.316 760.423,774.568 761.405,773.819 762.386,773.071 763.367,772.322 764.349,771.574 765.33,770.825 766.312,770.077 767.293,769.328 768.275,768.58 769.256,767.831 770.237,767.083 771.219,766.334 772.2,765.586 773.182,764.837 774.163,764.089 775.145,763.34 776.126,762.592 777.107,761.843 778.089,761.094 779.07,760.346 780.052,759.597 781.033,758.849 782.015,758.1 782.996,757.352 783.978,756.603 784.959,755.855 785.94,755.106 786.922,754.358 787.903,753.609 788.885,752.861 789.866,752.112 790.848,751.364 791.829,750.615 792.81,749.867 793.792,749.118 794.773,748.37 795.755,747.621 796.736,746.873 797.718,746.124 798.699,745.376 799.681,744.627 800.662,743.879 801.643,743.13 802.625,742.382 803.606,741.633 804.588,740.885 805.569,740.136 806.551,739.388 807.532,738.639 808.513,737.891 809.495,737.142 810.476,736.394 811.458,735.645 812.439,734.897 813.421,734.148 814.402,733.4 815.383,732.651 816.365,731.903 817.346,731.154 818.328,730.406 819.309,729.657 820.291,728.909 821.272,728.16 822.254,727.412 823.235,726.663 824.216,725.915 825.198,725.166 826.179,724.418 827.161,723.669 828.142,722.921 829.124,722.172 830.105,721.424 831.086,720.675 832.068,719.927 833.049,719.178 834.031,718.43 835.012,717.681 835.994,716.932 836.975,716.184 837.956,715.435 838.938,714.687 839.919,713.938 840.901,713.19 841.882,712.441 842.864,711.693 843.845,710.944 844.827,710.196 845.808,709.447 846.789,708.699 847.771,707.95 848.752,707.202 849.734,706.453 850.715,705.705 851.697,704.956 852.678,704.208 853.659,703.459 854.641,702.711 855.622,701.962 856.604,701.214 857.585,700.465 858.567,699.717 859.548,698.968 860.53,698.22 861.511,697.471 862.492,696.723 863.474,695.974 864.455,695.226 865.437,694.477 866.418,693.729 867.4,692.98 868.381,692.232 869.362,691.577 870.344,692.325 871.325,693.074 872.307,693.822 873.288,694.571 874.27,695.319 875.251,696.068 876.233,696.816 877.214,697.565 878.195,698.313 879.177,699.062 880.158,699.81 881.14,700.559 882.121,701.307 883.103,702.056 884.084,702.804 885.065,703.553 886.047,704.301 887.028,705.05 888.01,705.798 888.991,706.547 889.973,707.295 890.954,708.044 891.935,708.792 892.917,709.541 893.898,710.289 894.88,711.038 895.861,711.786 896.843,712.535 897.824,713.284 898.806,714.032 899.787,714.781 900.768,715.529 901.75,716.278 902.731,717.026 903.713,717.775 904.694,718.523 905.676,719.272 906.657,720.02 907.638,720.769 908.62,721.517 909.601,722.266 910.583,723.014 911.564,723.763 912.546,724.511 913.527,725.26 914.509,726.008 915.49,726.757 916.471,727.505 917.453,728.254 918.434,729.002 919.416,729.751 920.397,730.499 921.379,731.248 922.36,731.996 923.341,732.745 924.323,733.493 925.304,734.242 926.286,734.99 927.267,735.739 928.249,736.487 929.23,737.236 930.211,737.984 931.193,738.733 932.174,739.481 933.156,740.23 934.137,740.978 935.119,741.727 936.1,742.475 937.082,743.224 938.063,743.972 939.044,744.721 940.026,745.469 941.007,746.218 941.989,746.966 942.97,747.715 943.952,748.463 944.933,749.212 945.914,749.96 946.896,750.709 947.877,751.457 948.859,752.206 949.84,752.954 950.822,753.703 951.803,754.451 952.784,755.2 953.766,755.949 954.747,756.697 955.729,757.446 956.71,758.194 957.692,758.943 958.673,759.691 959.655,760.44 960.636,761.188 961.617,761.937 962.599,762.685 963.58,763.434 964.562,764.182 965.543,764.931 966.525,765.679 967.506,766.428 968.488,767.176 969.469,767.925 970.45,768.673 971.432,769.422 972.413,770.17 973.395,770.919 974.376,771.667 975.358,772.416 976.339,773.164 977.32,773.913 978.302,774.661 979.283,775.41 980.265,776.158 981.246,776.907 982.228,777.655 983.209,778.404 984.19,779.152 985.172,779.901 986.153,780.649 987.135,781.398 988.116,782.146 989.098,782.895 990.079,783.643 991.061,784.392 992.042,784.86 993.023,784.111 994.005,783.363 994.986,782.614 995.968,781.866 996.949,781.117 997.931,780.369 998.912,779.62 999.893,778.872 1000.87,778.123 1001.86,777.375 1002.84,776.626 1003.82,775.878 1004.8,775.129 1005.78,774.381 1006.76,773.632 1007.74,772.884 1008.73,772.135 1009.71,771.387 1010.69,770.638 1011.67,769.889 1012.65,769.141 1013.63,768.392 1014.61,767.644 1015.6,766.895 1016.58,766.147 1017.56,765.398 1018.54,764.65 1019.52,763.901 1020.5,763.153 1021.49,762.404 1022.47,761.656 1023.45,760.907 1024.43,760.159 1025.41,759.41 1026.39,758.662 1027.37,757.913 1028.36,757.165 1029.34,756.416 1030.32,755.668 1031.3,754.919 1032.28,754.171 1033.26,753.422 1034.24,752.674 1035.23,751.925 1036.21,751.177 1037.19,750.428 1038.17,749.68 1039.15,748.931 1040.13,748.183 1041.11,747.434 1042.1,746.686 1043.08,745.937 1044.06,745.189 1045.04,744.44 1046.02,743.692 1047,742.943 1047.98,742.195 1048.97,741.446 1049.95,740.698 1050.93,739.949 1051.91,739.201 1052.89,738.452 1053.87,737.704 1054.85,736.955 1055.84,736.207 1056.82,735.458 1057.8,734.71 1058.78,733.961 1059.76,733.213 1060.74,732.464 1061.72,731.716 1062.71,730.967 1063.69,730.219 1064.67,729.47 1065.65,728.721 1066.63,727.973 1067.61,727.224 1068.59,726.476 1069.58,725.727 1070.56,724.979 1071.54,724.23 1072.52,723.482 1073.5,722.733 1074.48,721.985 1075.46,721.236 1076.45,720.488 1077.43,719.739 1078.41,718.991 1079.39,718.242 1080.37,717.494 1081.35,716.745 1082.33,715.997 1083.32,715.248 1084.3,714.5 1085.28,713.751 1086.26,713.003 1087.24,712.254 1088.22,711.506 1089.2,710.757 1090.19,710.009 1091.17,709.26 1092.15,708.512 1093.13,707.763 1094.11,707.015 1095.09,706.266 1096.07,705.518 1097.06,704.769 1098.04,704.021 1099.02,703.272 1100,702.524 1100.98,701.775 1101.96,701.027 1102.94,700.278 1103.93,699.53 1104.91,698.781 1105.89,698.033 1106.87,697.284 1107.85,696.536 1108.83,695.787 1109.81,695.039 1110.8,694.29 1111.78,693.542 1112.76,692.793 1113.74,692.045 1114.72,691.764 1115.7,692.512 1116.68,693.261 1117.67,694.009 1118.65,694.758 1119.63,695.506 1120.61,696.255 1121.59,697.003 1122.57,697.752 1123.55,698.5 1124.54,699.249 1125.52,699.997 1126.5,700.746 1127.48,701.495 1128.46,702.243 1129.44,702.992 1130.42,703.74 1131.41,704.489 1132.39,705.237 1133.37,705.986 1134.35,706.734 1135.33,707.483 1136.31,708.231 1137.29,708.98 1138.28,709.728 1139.26,710.477 1140.24,711.225 1141.22,711.974 1142.2,712.722 1143.18,713.471 1144.16,714.219 1145.15,714.968 1146.13,715.716 1147.11,716.465 1148.09,717.213 1149.07,717.962 1150.05,718.71 1151.03,719.459 1152.02,720.207 1153,720.956 1153.98,721.704 1154.96,722.453 1155.94,723.201 1156.92,723.95 1157.9,724.698 1158.89,725.447 1159.87,726.195 1160.85,726.944 1161.83,727.692 1162.81,728.441 1163.79,729.189 1164.77,729.938 1165.76,730.686 1166.74,731.435 1167.72,732.183 1168.7,732.932 1169.68,733.68 1170.66,734.429 1171.64,735.177 1172.63,735.926 1173.61,736.674 1174.59,737.423 1175.57,738.171 1176.55,738.92 1177.53,739.668 1178.51,740.417 1179.5,741.165 1180.48,741.914 1181.46,742.662 1182.44,743.411 1183.42,744.159 1184.4,744.908 1185.38,745.656 1186.37,746.405 1187.35,747.154 1188.33,747.902 1189.31,748.651 1190.29,749.399 1191.27,750.148 1192.25,750.896 1193.24,751.645 1194.22,752.393 1195.2,753.142 1196.18,753.89 1197.16,754.639 1198.14,755.387 1199.13,756.136 1200.11,756.884 1201.09,757.633 1202.07,758.381 1203.05,759.13 1204.03,759.878 1205.01,760.627 1205.99,761.375 1206.98,762.124 1207.96,762.872 1208.94,763.621 1209.92,764.369 1210.9,765.118 1211.88,765.866 1212.87,766.615 1213.85,767.363 1214.83,768.112 1215.81,768.86 1216.79,769.609 1217.77,770.357 1218.75,771.106 1219.74,771.854 1220.72,772.603 1221.7,773.351 1222.68,774.1 1223.66,774.848 1224.64,775.597 1225.62,776.345 1226.61,777.094 1227.59,777.842 1228.57,778.591 1229.55,779.339 1230.53,780.088 1231.51,780.836 1232.49,781.585 1233.48,782.333 1234.46,783.082 1235.44,783.83 1236.42,784.579 1237.4,784.673 1238.38,783.924 1239.36,783.175 1240.35,782.427 1241.33,781.678 1242.31,780.93 1243.29,780.181 1244.27,779.433 1245.25,778.684 1246.23,777.936 1247.22,777.187 1248.2,776.439 1249.18,775.69 1250.16,774.942 1251.14,774.193 1252.12,773.445 1253.1,772.696 1254.09,771.948 1255.07,771.199 1256.05,770.451 1257.03,769.702 1258.01,768.954 1258.99,768.205 1259.97,767.457 1260.96,766.708 1261.94,765.96 1262.92,765.211 1263.9,764.463 1264.88,763.714 1265.86,762.966 1266.84,762.217 1267.83,761.469 1268.81,760.72 1269.79,759.972 1270.77,759.223 1271.75,758.475 1272.73,757.726 1273.71,756.978 1274.7,756.229 1275.68,755.481 1276.66,754.732 1277.64,753.984 1278.62,753.235 1279.6,752.487 1280.58,751.738 1281.57,750.99 1282.55,750.241 1283.53,749.493 1284.51,748.744 1285.49,747.996 1286.47,747.247 1287.45,746.499 1288.44,745.75 1289.42,745.002 1290.4,744.253 1291.38,743.505 1292.36,742.756 1293.34,742.008 1294.32,741.259 1295.31,740.511 1296.29,739.762 1297.27,739.013 1298.25,738.265 " />
</g>

<g fill="#212121" fill-opacity="1" stroke="none" transform="matrix(0.5,0,0,0.5,0.499992,342.952)"
font-family=".AppleSystemUIFont" font-size="13" font-weight="400" font-style="normal" 
>
<path vector-effect="none" fill-rule="evenodd" d="M2.51367,-2.02148 C2.25586,-2.02148 2.0918,-2.32031 2.02148,-2.91797 L2.02148,-3.12891 C2.02148,-4.21875 2.28809,-5.21484 2.82129,-6.11719 C3.35449,-7.01953 4.08398,-7.72559 5.00977,-8.23535 C5.93555,-8.74512 6.93164,-9 7.99805,-9 C9.28711,-9 10.6143,-8.58691 11.9795,-7.76074 C13.3447,-6.93457 14.7012,-6.10547 16.0488,-5.27344 C17.3965,-4.44141 18.709,-4.02539 19.9863,-4.02539 C21.2168,-4.02539 22.3506,-4.40625 23.3877,-5.16797 C24.4248,-5.92969 24.9434,-6.9082 24.9434,-8.10352 C25.0137,-8.70117 25.1836,-9 25.4531,-9 C25.7227,-9 25.8926,-8.70117 25.9629,-8.10352 L25.9629,-7.89258 C25.9629,-6.80273 25.6934,-5.80664 25.1543,-4.9043 C24.6152,-4.00195 23.8857,-3.2959 22.9658,-2.78613 C22.0459,-2.27637 21.0527,-2.02148 19.9863,-2.02148 C18.9785,-2.02148 18.0322,-2.22949 17.1475,-2.64551 C16.2627,-3.06152 15.2256,-3.6709 14.0361,-4.47363 C12.8467,-5.27637 11.8008,-5.89453 10.8984,-6.32813 C9.99609,-6.76172 9.0293,-6.97852 7.99805,-6.97852 C7.23633,-6.97852 6.46289,-6.80859 5.67773,-6.46875 C4.89258,-6.12891 4.25391,-5.65137 3.76172,-5.03613 C3.26953,-4.4209 3.02344,-3.71484 3.02344,-2.91797 C2.95313,-2.32031 2.7832,-2.02148 2.51367,-2.02148 M2.51367,-10.4063 C2.25586,-10.4063 2.0918,-10.7051 2.02148,-11.3027 L2.02148,-11.5137 C2.02148,-12.6035 2.28809,-13.5996 2.82129,-14.502 C3.35449,-15.4043 4.08398,-16.1104 5.00977,-16.6201 C5.93555,-17.1299 6.93164,-17.3848 7.99805,-17.3848 C9.28711,-17.3848 10.6143,-16.9717 11.9795,-16.1455 C13.3447,-15.3193 14.7012,-14.4932 16.0488,-13.667 C17.3965,-12.8408 18.709,-12.4277 19.9863,-12.4277 C21.2168,-12.4277 22.3506,-12.8086 23.3877,-13.5703 C24.4248,-14.332 24.9434,-15.3047 24.9434,-16.4883 C25.0137,-17.0859 25.1836,-17.3848 25.4531,-17.3848 C25.7227,-17.3848 25.8926,-17.0859 25.9629,-16.4883 L25.9629,-16.2773 C25.9629,-15.1875 25.6934,-14.1914 25.1543,-13.2891 C24.6152,-12.3867 23.8857,-11.6807 22.9658,-11.1709 C22.0459,-10.6611 21.0527,-10.4063 19.9863,-10.4063 C18.9785,-10.4063 18.0322,-10.6143 17.1475,-11.0303 C16.2627,-11.4463 15.2256,-12.0557 14.0361,-12.8584 C12.8467,-13.6611 11.8008,-14.2793 10.8984,-14.7129 C9.99609,-15.1465 9.0293,-15.3633 7.99805,-15.3633 C7.23633,-15.3633 6.46289,-15.1934 5.67773,-14.8535 C4.89258,-14.5137 4.25391,-14.0361 3.76172,-13.4209 C3.26953,-12.8057 3.02344,-12.0996 3.02344,-11.3027 C2.95313,-10.7051 2.7832,-10.4063 2.51367,-10.4063 "/>
</g>
</g>
</svg>
